solid
facet normal -1.0 0.0 0.0
 outer loop
  vertex 12.571333 12.571333 18.856998750016103
  vertex 12.571333 8.989119133437404 21.460239858246776
  vertex 12.571333 12.571333 25.142665
 endloop
endfacet
facet normal -1.0 -0.0 0.0
 outer loop
  vertex 12.571333 12.571333 25.142665
  vertex 12.571333 8.989119133437404 21.460239858246776
  vertex 12.571333 6.2856665000165135 25.142665
 endloop
endfacet
facet normal -1.0 0.0 0.0
 outer loop
  vertex 12.571333 12.571333 0.0
  vertex 12.571333 7.773796340314939 4.44515904355034
  vertex 12.571333 12.571333 6.285666250016001
 endloop
endfacet
facet normal -1.0 0.0 0.0
 outer loop
  vertex 12.571333 6.2856665000165135 0.0
  vertex 12.571333 7.773796340314939 4.44515904355034
  vertex 12.571333 12.571333 0.0
 endloop
endfacet
facet normal -1.0 -0.0 0.0
 outer loop
  vertex 12.571333 6.2856665000165135 25.142665
  vertex 12.571333 4.825964545697344 20.85452185849734
  vertex 12.571333 0.0 25.142665
 endloop
endfacet
facet normal -1.0 0.0 0.0
 outer loop
  vertex 12.571333 0.0 25.142665
  vertex 12.571333 4.825964545697344 20.85452185849734
  vertex 12.571333 0.0 18.856998750016103
 endloop
endfacet
facet normal -1.0 0.0 0.0
 outer loop
  vertex 12.571333 0.0 0.0
  vertex 12.571333 3.739201783090727 3.9035507819271946
  vertex 12.571333 6.2856665000165135 0.0
 endloop
endfacet
facet normal -1.0 0.0 0.0
 outer loop
  vertex 12.571333 0.0 6.285666250016001
  vertex 12.571333 3.739201783090727 3.9035507819271946
  vertex 12.571333 0.0 0.0
 endloop
endfacet
facet normal -1.0 -3.2632343449894486e-16 0.0
 outer loop
  vertex 12.571333 12.571333 12.571332500030449
  vertex 12.571333000000001 7.127786347802716 15.714165625023275
  vertex 12.571333 12.571333 18.856998750016103
 endloop
endfacet
facet normal -1.0 -1.8184966670779994e-16 -2.502359061751358e-16
 outer loop
  vertex 12.571333000000001 7.127786347802716 15.714165625023275
  vertex 12.571333 8.989119133437404 21.460239858246776
  vertex 12.571333 12.571333 18.856998750016103
 endloop
endfacet
facet normal -1.0 0.0 0.0
 outer loop
  vertex 12.571333 12.571333 6.285666250016001
  vertex 12.571333 5.642532948749493 9.428499375023225
  vertex 12.571333 12.571333 12.571332500030449
 endloop
endfacet
facet normal -1.0 -1.4357477057362061e-16 3.1652997093394696e-16
 outer loop
  vertex 12.571333 12.571333 12.571332500030449
  vertex 12.571333 5.642532948749493 9.428499375023225
  vertex 12.571333000000001 7.127786347802716 15.714165625023275
 endloop
endfacet
facet normal -1.0 -0.0 0.0
 outer loop
  vertex 12.571333 12.571333 6.285666250016001
  vertex 12.571333 7.773796340314939 4.44515904355034
  vertex 12.571333 5.642532948749493 9.428499375023225
 endloop
endfacet
facet normal -1.0 0.0 -0.0
 outer loop
  vertex 12.571333 6.2856665000165135 25.142665
  vertex 12.571333 8.989119133437404 21.460239858246776
  vertex 12.571333 4.825964545697344 20.85452185849734
 endloop
endfacet
facet normal -1.0 0.0 0.0
 outer loop
  vertex 12.571333 6.2856665000165135 0.0
  vertex 12.571333 3.739201783090727 3.9035507819271946
  vertex 12.571333 7.773796340314939 4.44515904355034
 endloop
endfacet
facet normal -1.0 2.4921578070979195e-16 0.0
 outer loop
  vertex 12.571333 0.0 18.856998750016103
  vertex 12.571333000000001 7.127786347802716 15.714165625023275
  vertex 12.571333 0.0 12.571332500030449
 endloop
endfacet
facet normal -1.0 1.2066993554201177e-16 -2.915354661904794e-16
 outer loop
  vertex 12.571333 0.0 18.856998750016103
  vertex 12.571333 4.825964545697344 20.85452185849734
  vertex 12.571333000000001 7.127786347802716 15.714165625023275
 endloop
endfacet
facet normal -1.0 0.0 0.0
 outer loop
  vertex 12.571333 0.0 12.571332500030449
  vertex 12.571333 5.642532948749493 9.428499375023225
  vertex 12.571333 0.0 6.285666250016001
 endloop
endfacet
facet normal -1.0 1.3910042483302943e-16 2.4973604995448713e-16
 outer loop
  vertex 12.571333000000001 7.127786347802716 15.714165625023275
  vertex 12.571333 5.642532948749493 9.428499375023225
  vertex 12.571333 0.0 12.571332500030449
 endloop
endfacet
facet normal -1.0 0.0 0.0
 outer loop
  vertex 12.571333 5.642532948749493 9.428499375023225
  vertex 12.571333 3.739201783090727 3.9035507819271946
  vertex 12.571333 0.0 6.285666250016001
 endloop
endfacet
facet normal -1.0 4.72034162852102e-17 -3.244333487630673e-16
 outer loop
  vertex 12.571333 4.825964545697344 20.85452185849734
  vertex 12.571333 8.989119133437404 21.460239858246776
  vertex 12.571333000000001 7.127786347802716 15.714165625023275
 endloop
endfacet
facet normal -1.0 -0.0 0.0
 outer loop
  vertex 12.571333 7.773796340314939 4.44515904355034
  vertex 12.571333 3.739201783090727 3.9035507819271946
  vertex 12.571333 5.642532948749493 9.428499375023225
 endloop
endfacet
facet normal 0.0 1.0 -0.0
 outer loop
  vertex 12.571333 12.571333 18.856998750016103
  vertex 8.989119133437404 12.571333 21.460239858246776
  vertex 12.571333 12.571333 25.142665
 endloop
endfacet
facet normal 0.0 1.0 0.0
 outer loop
  vertex 12.571333 12.571333 25.142665
  vertex 8.989119133437404 12.571333 21.460239858246776
  vertex 6.2856665000165135 12.571333 25.142665
 endloop
endfacet
facet normal 0.0 1.0 -0.0
 outer loop
  vertex 12.571333 12.571333 0.0
  vertex 7.773796340314939 12.571333 4.44515904355034
  vertex 12.571333 12.571333 6.285666250016001
 endloop
endfacet
facet normal 0.0 1.0 0.0
 outer loop
  vertex 6.2856665000165135 12.571333 0.0
  vertex 7.773796340314939 12.571333 4.44515904355034
  vertex 12.571333 12.571333 0.0
 endloop
endfacet
facet normal 0.0 1.0 0.0
 outer loop
  vertex 6.2856665000165135 12.571333 25.142665
  vertex 4.825964545697344 12.571333 20.85452185849734
  vertex 0.0 12.571333 25.142665
 endloop
endfacet
facet normal 0.0 1.0 0.0
 outer loop
  vertex 0.0 12.571333 25.142665
  vertex 4.825964545697344 12.571333 20.85452185849734
  vertex 0.0 12.571333 18.856998750016103
 endloop
endfacet
facet normal 0.0 1.0 0.0
 outer loop
  vertex 0.0 12.571333 0.0
  vertex 3.739201783090727 12.571333 3.9035507819271946
  vertex 6.2856665000165135 12.571333 0.0
 endloop
endfacet
facet normal 0.0 1.0 0.0
 outer loop
  vertex 0.0 12.571333 6.285666250016001
  vertex 3.739201783090727 12.571333 3.9035507819271946
  vertex 0.0 12.571333 0.0
 endloop
endfacet
facet normal 3.2632343449894486e-16 1.0 -0.0
 outer loop
  vertex 12.571333 12.571333 12.571332500030449
  vertex 7.127786347802716 12.571333000000001 15.714165625023275
  vertex 12.571333 12.571333 18.856998750016103
 endloop
endfacet
facet normal 1.8184966670779994e-16 1.0 2.502359061751358e-16
 outer loop
  vertex 7.127786347802716 12.571333000000001 15.714165625023275
  vertex 8.989119133437404 12.571333 21.460239858246776
  vertex 12.571333 12.571333 18.856998750016103
 endloop
endfacet
facet normal 0.0 1.0 -0.0
 outer loop
  vertex 12.571333 12.571333 6.285666250016001
  vertex 5.642532948749493 12.571333 9.428499375023225
  vertex 12.571333 12.571333 12.571332500030449
 endloop
endfacet
facet normal 1.4357477057362061e-16 1.0 -3.1652997093394696e-16
 outer loop
  vertex 12.571333 12.571333 12.571332500030449
  vertex 5.642532948749493 12.571333 9.428499375023225
  vertex 7.127786347802716 12.571333000000001 15.714165625023275
 endloop
endfacet
facet normal 0.0 1.0 0.0
 outer loop
  vertex 12.571333 12.571333 6.285666250016001
  vertex 7.773796340314939 12.571333 4.44515904355034
  vertex 5.642532948749493 12.571333 9.428499375023225
 endloop
endfacet
facet normal 0.0 1.0 0.0
 outer loop
  vertex 6.2856665000165135 12.571333 25.142665
  vertex 8.989119133437404 12.571333 21.460239858246776
  vertex 4.825964545697344 12.571333 20.85452185849734
 endloop
endfacet
facet normal 0.0 1.0 -0.0
 outer loop
  vertex 6.2856665000165135 12.571333 0.0
  vertex 3.739201783090727 12.571333 3.9035507819271946
  vertex 7.773796340314939 12.571333 4.44515904355034
 endloop
endfacet
facet normal -2.4921578070979195e-16 1.0 0.0
 outer loop
  vertex 0.0 12.571333 18.856998750016103
  vertex 7.127786347802716 12.571333000000001 15.714165625023275
  vertex 0.0 12.571333 12.571332500030449
 endloop
endfacet
facet normal -1.2066993554201177e-16 1.0 2.915354661904794e-16
 outer loop
  vertex 0.0 12.571333 18.856998750016103
  vertex 4.825964545697344 12.571333 20.85452185849734
  vertex 7.127786347802716 12.571333000000001 15.714165625023275
 endloop
endfacet
facet normal 0.0 1.0 0.0
 outer loop
  vertex 0.0 12.571333 12.571332500030449
  vertex 5.642532948749493 12.571333 9.428499375023225
  vertex 0.0 12.571333 6.285666250016001
 endloop
endfacet
facet normal -1.3910042483302943e-16 1.0 -2.4973604995448713e-16
 outer loop
  vertex 7.127786347802716 12.571333000000001 15.714165625023275
  vertex 5.642532948749493 12.571333 9.428499375023225
  vertex 0.0 12.571333 12.571332500030449
 endloop
endfacet
facet normal 0.0 1.0 0.0
 outer loop
  vertex 5.642532948749493 12.571333 9.428499375023225
  vertex 3.739201783090727 12.571333 3.9035507819271946
  vertex 0.0 12.571333 6.285666250016001
 endloop
endfacet
facet normal -4.72034162852102e-17 1.0 3.244333487630673e-16
 outer loop
  vertex 4.825964545697344 12.571333 20.85452185849734
  vertex 8.989119133437404 12.571333 21.460239858246776
  vertex 7.127786347802716 12.571333000000001 15.714165625023275
 endloop
endfacet
facet normal 0.0 1.0 0.0
 outer loop
  vertex 7.773796340314939 12.571333 4.44515904355034
  vertex 3.739201783090727 12.571333 3.9035507819271946
  vertex 5.642532948749493 12.571333 9.428499375023225
 endloop
endfacet
facet normal 0.0 0.0 -1.0
 outer loop
  vertex 12.571333 6.2856665000165135 25.142665
  vertex 9.035645585713239 9.035645495700482 25.142665
  vertex 12.571333 12.571333 25.142665
 endloop
endfacet
facet normal -0.0 0.0 -1.0
 outer loop
  vertex 12.571333 12.571333 25.142665
  vertex 9.035645585713239 9.035645495700482 25.142665
  vertex 6.2856665000165135 12.571333 25.142665
 endloop
endfacet
facet normal 0.0 0.0 -1.0
 outer loop
  vertex 12.571333 0.0 25.142665
  vertex 7.857083107558305 4.714249835345588 25.142665
  vertex 12.571333 6.2856665000165135 25.142665
 endloop
endfacet
facet normal 0.0 0.0 -1.0
 outer loop
  vertex 6.2856665000165135 0.0 25.142665
  vertex 7.857083107558305 4.714249835345588 25.142665
  vertex 12.571333 0.0 25.142665
 endloop
endfacet
facet normal -0.0 0.0 -1.0
 outer loop
  vertex 6.2856665000165135 12.571333 25.142665
  vertex 4.386871383005997 8.053510174169643 25.142665
  vertex 0.0 12.571333 25.142665
 endloop
endfacet
facet normal 0.0 0.0 -1.0
 outer loop
  vertex 0.0 12.571333 25.142665
  vertex 4.386871383005997 8.053510174169643 25.142665
  vertex 0.0 6.2856665000165135 25.142665
 endloop
endfacet
facet normal 0.0 -1.1304174875459947e-15 -1.0
 outer loop
  vertex 0.0 0.0 25.142665
  vertex 3.142833261110485 3.1428332611104857 25.142664999999997
  vertex 6.2856665000165135 0.0 25.142665
 endloop
endfacet
facet normal -1.130417487545995e-15 -0.0 -1.0
 outer loop
  vertex 0.0 6.2856665000165135 25.142665
  vertex 3.142833261110485 3.1428332611104857 25.142664999999997
  vertex 0.0 0.0 25.142665
 endloop
endfacet
facet normal 0.0 0.0 -1.0
 outer loop
  vertex 7.857083107558305 4.714249835345588 25.142665
  vertex 9.035645585713239 9.035645495700482 25.142665
  vertex 12.571333 6.2856665000165135 25.142665
 endloop
endfacet
facet normal 0.0 -0.0 -1.0
 outer loop
  vertex 6.2856665000165135 12.571333 25.142665
  vertex 9.035645585713239 9.035645495700482 25.142665
  vertex 4.386871383005997 8.053510174169643 25.142665
 endloop
endfacet
facet normal 8.478131207238172e-16 -2.8260437281206903e-16 -1.0
 outer loop
  vertex 3.142833261110485 3.1428332611104857 25.142664999999997
  vertex 7.857083107558305 4.714249835345588 25.142665
  vertex 6.2856665000165135 0.0 25.142665
 endloop
endfacet
facet normal -3.246943840640065e-16 8.057231091745097e-16 -1.0
 outer loop
  vertex 0.0 6.2856665000165135 25.142665
  vertex 4.386871383005997 8.053510174169643 25.142665
  vertex 3.142833261110485 3.1428332611104857 25.142664999999997
 endloop
endfacet
facet normal 5.597212893943655e-16 5.816711438623186e-16 -1.0
 outer loop
  vertex 3.142833261110485 3.1428332611104857 25.142664999999997
  vertex 4.386871383005997 8.053510174169643 25.142665
  vertex 7.857083107558305 4.714249835345588 25.142665
 endloop
endfacet
facet normal 0.0 0.0 -1.0
 outer loop
  vertex 4.386871383005997 8.053510174169643 25.142665
  vertex 9.035645585713239 9.035645495700482 25.142665
  vertex 7.857083107558305 4.714249835345588 25.142665
 endloop
endfacet
facet normal 0.0 0.0 -1.0
 outer loop
  vertex 12.571333 6.2856665000165135 0.0
  vertex 9.03564551683339 9.035645467329063 0.0
  vertex 12.571333 12.571333 0.0
 endloop
endfacet
facet normal -0.0 0.0 -1.0
 outer loop
  vertex 12.571333 12.571333 0.0
  vertex 9.03564551683339 9.035645467329063 0.0
  vertex 6.2856665000165135 12.571333 0.0
 endloop
endfacet
facet normal 0.0 0.0 -1.0
 outer loop
  vertex 12.571333 0.0 0.0
  vertex 8.053510146547554 4.386871370848284 0.0
  vertex 12.571333 6.2856665000165135 0.0
 endloop
endfacet
facet normal 0.0 0.0 -1.0
 outer loop
  vertex 6.2856665000165135 0.0 0.0
  vertex 8.053510146547554 4.386871370848284 0.0
  vertex 12.571333 0.0 0.0
 endloop
endfacet
facet normal -0.0 0.0 -1.0
 outer loop
  vertex 6.2856665000165135 12.571333 0.0
  vertex 4.714249796487783 7.857083068700497 0.0
  vertex 0.0 12.571333 0.0
 endloop
endfacet
facet normal 0.0 0.0 -1.0
 outer loop
  vertex 0.0 12.571333 0.0
  vertex 4.714249796487783 7.857083068700497 0.0
  vertex 0.0 6.2856665000165135 0.0
 endloop
endfacet
facet normal 0.0 0.0 -1.0
 outer loop
  vertex 0.0 0.0 0.0
  vertex 3.142833261110487 3.142833261110487 0.0
  vertex 6.2856665000165135 0.0 0.0
 endloop
endfacet
facet normal 0.0 0.0 -1.0
 outer loop
  vertex 0.0 6.2856665000165135 0.0
  vertex 3.142833261110487 3.142833261110487 0.0
  vertex 0.0 0.0 0.0
 endloop
endfacet
facet normal 0.0 0.0 -1.0
 outer loop
  vertex 8.053510146547554 4.386871370848284 0.0
  vertex 9.03564551683339 9.035645467329063 0.0
  vertex 12.571333 6.2856665000165135 0.0
 endloop
endfacet
facet normal 0.0 -0.0 -1.0
 outer loop
  vertex 6.2856665000165135 12.571333 0.0
  vertex 9.03564551683339 9.035645467329063 0.0
  vertex 4.714249796487783 7.857083068700497 0.0
 endloop
endfacet
facet normal 0.0 0.0 -1.0
 outer loop
  vertex 3.142833261110487 3.142833261110487 0.0
  vertex 8.053510146547554 4.386871370848284 0.0
  vertex 6.2856665000165135 0.0 0.0
 endloop
endfacet
facet normal 0.0 0.0 -1.0
 outer loop
  vertex 0.0 6.2856665000165135 0.0
  vertex 4.714249796487783 7.857083068700497 0.0
  vertex 3.142833261110487 3.142833261110487 0.0
 endloop
endfacet
facet normal 0.0 -0.0 -1.0
 outer loop
  vertex 4.714249796487783 7.857083068700497 0.0
  vertex 8.053510146547554 4.386871370848284 0.0
  vertex 3.142833261110487 3.142833261110487 0.0
 endloop
endfacet
facet normal 0.0 0.0 -1.0
 outer loop
  vertex 4.714249796487783 7.857083068700497 0.0
  vertex 9.03564551683339 9.035645467329063 0.0
  vertex 8.053510146547554 4.386871370848284 0.0
 endloop
endfacet
facet normal 0.0 1.0 -0.0
 outer loop
  vertex 12.571333 0.0 18.856998750016103
  vertex 8.989119136606996 0.0 21.460239865752357
  vertex 12.571333 0.0 25.142665
 endloop
endfacet
facet normal 0.0 1.0 0.0
 outer loop
  vertex 12.571333 0.0 25.142665
  vertex 8.989119136606996 0.0 21.460239865752357
  vertex 6.2856665000165135 0.0 25.142665
 endloop
endfacet
facet normal 0.0 1.0 -0.0
 outer loop
  vertex 12.571333 0.0 0.0
  vertex 7.773796345203551 0.0 4.445159049429755
  vertex 12.571333 0.0 6.285666250016001
 endloop
endfacet
facet normal 0.0 1.0 0.0
 outer loop
  vertex 6.2856665000165135 0.0 0.0
  vertex 7.773796345203551 0.0 4.445159049429755
  vertex 12.571333 0.0 0.0
 endloop
endfacet
facet normal 0.0 1.0 0.0
 outer loop
  vertex 6.2856665000165135 0.0 25.142665
  vertex 4.825964542794083 0.0 20.8545218584094
  vertex 0.0 0.0 25.142665
 endloop
endfacet
facet normal 0.0 1.0 0.0
 outer loop
  vertex 0.0 0.0 25.142665
  vertex 4.825964542794083 0.0 20.8545218584094
  vertex 0.0 0.0 18.856998750016103
 endloop
endfacet
facet normal 0.0 1.0 0.0
 outer loop
  vertex 0.0 0.0 0.0
  vertex 3.7392017968843985 0.0 3.9035507927156097
  vertex 6.2856665000165135 0.0 0.0
 endloop
endfacet
facet normal 0.0 1.0 0.0
 outer loop
  vertex 0.0 0.0 6.285666250016001
  vertex 3.7392017968843985 0.0 3.9035507927156097
  vertex 0.0 0.0 0.0
 endloop
endfacet
facet normal 0.0 1.0 -0.0
 outer loop
  vertex 12.571333 0.0 12.571332500030449
  vertex 7.127786347802716 0.0 15.714165625023275
  vertex 12.571333 0.0 18.856998750016103
 endloop
endfacet
facet normal 0.0 1.0 0.0
 outer loop
  vertex 7.127786347802716 0.0 15.714165625023275
  vertex 8.989119136606996 0.0 21.460239865752357
  vertex 12.571333 0.0 18.856998750016103
 endloop
endfacet
facet normal 0.0 1.0 -0.0
 outer loop
  vertex 12.571333 0.0 6.285666250016001
  vertex 5.642532948749491 0.0 9.428499375023225
  vertex 12.571333 0.0 12.571332500030449
 endloop
endfacet
facet normal 0.0 1.0 0.0
 outer loop
  vertex 12.571333 0.0 12.571332500030449
  vertex 5.642532948749491 0.0 9.428499375023225
  vertex 7.127786347802716 0.0 15.714165625023275
 endloop
endfacet
facet normal 0.0 1.0 0.0
 outer loop
  vertex 12.571333 0.0 6.285666250016001
  vertex 7.773796345203551 0.0 4.445159049429755
  vertex 5.642532948749491 0.0 9.428499375023225
 endloop
endfacet
facet normal 0.0 1.0 0.0
 outer loop
  vertex 6.2856665000165135 0.0 25.142665
  vertex 8.989119136606996 0.0 21.460239865752357
  vertex 4.825964542794083 0.0 20.8545218584094
 endloop
endfacet
facet normal 0.0 1.0 -0.0
 outer loop
  vertex 6.2856665000165135 0.0 0.0
  vertex 3.7392017968843985 0.0 3.9035507927156097
  vertex 7.773796345203551 0.0 4.445159049429755
 endloop
endfacet
facet normal 0.0 1.0 0.0
 outer loop
  vertex 0.0 0.0 18.856998750016103
  vertex 7.127786347802716 0.0 15.714165625023275
  vertex 0.0 0.0 12.571332500030449
 endloop
endfacet
facet normal -0.0 1.0 0.0
 outer loop
  vertex 0.0 0.0 18.856998750016103
  vertex 4.825964542794083 0.0 20.8545218584094
  vertex 7.127786347802716 0.0 15.714165625023275
 endloop
endfacet
facet normal 0.0 1.0 0.0
 outer loop
  vertex 0.0 0.0 12.571332500030449
  vertex 5.642532948749491 0.0 9.428499375023225
  vertex 0.0 0.0 6.285666250016001
 endloop
endfacet
facet normal 0.0 1.0 0.0
 outer loop
  vertex 7.127786347802716 0.0 15.714165625023275
  vertex 5.642532948749491 0.0 9.428499375023225
  vertex 0.0 0.0 12.571332500030449
 endloop
endfacet
facet normal 0.0 1.0 0.0
 outer loop
  vertex 5.642532948749491 0.0 9.428499375023225
  vertex 3.7392017968843985 0.0 3.9035507927156097
  vertex 0.0 0.0 6.285666250016001
 endloop
endfacet
facet normal -0.0 1.0 0.0
 outer loop
  vertex 4.825964542794083 0.0 20.8545218584094
  vertex 8.989119136606996 0.0 21.460239865752357
  vertex 7.127786347802716 0.0 15.714165625023275
 endloop
endfacet
facet normal 0.0 1.0 0.0
 outer loop
  vertex 7.773796345203551 0.0 4.445159049429755
  vertex 3.7392017968843985 0.0 3.9035507927156097
  vertex 5.642532948749491 0.0 9.428499375023225
 endloop
endfacet
facet normal -1.0 0.0 0.0
 outer loop
  vertex 0.0 12.571333 18.856998750016103
  vertex 0.0 8.989119136606996 21.460239865752357
  vertex 0.0 12.571333 25.142665
 endloop
endfacet
facet normal -1.0 -0.0 0.0
 outer loop
  vertex 0.0 12.571333 25.142665
  vertex 0.0 8.989119136606996 21.460239865752357
  vertex 0.0 6.2856665000165135 25.142665
 endloop
endfacet
facet normal -1.0 0.0 0.0
 outer loop
  vertex 0.0 12.571333 0.0
  vertex 0.0 7.773796345203551 4.445159049429755
  vertex 0.0 12.571333 6.285666250016001
 endloop
endfacet
facet normal -1.0 0.0 0.0
 outer loop
  vertex 0.0 6.2856665000165135 0.0
  vertex 0.0 7.773796345203551 4.445159049429755
  vertex 0.0 12.571333 0.0
 endloop
endfacet
facet normal -1.0 -0.0 0.0
 outer loop
  vertex 0.0 6.2856665000165135 25.142665
  vertex 0.0 4.825964542794083 20.8545218584094
  vertex 0.0 0.0 25.142665
 endloop
endfacet
facet normal -1.0 0.0 0.0
 outer loop
  vertex 0.0 0.0 25.142665
  vertex 0.0 4.825964542794083 20.8545218584094
  vertex 0.0 0.0 18.856998750016103
 endloop
endfacet
facet normal -1.0 0.0 0.0
 outer loop
  vertex 0.0 0.0 0.0
  vertex 0.0 3.7392017968843985 3.9035507927156097
  vertex 0.0 6.2856665000165135 0.0
 endloop
endfacet
facet normal -1.0 0.0 0.0
 outer loop
  vertex 0.0 0.0 6.285666250016001
  vertex 0.0 3.7392017968843985 3.9035507927156097
  vertex 0.0 0.0 0.0
 endloop
endfacet
facet normal -1.0 0.0 0.0
 outer loop
  vertex 0.0 12.571333 12.571332500030449
  vertex 0.0 7.127786347802716 15.714165625023275
  vertex 0.0 12.571333 18.856998750016103
 endloop
endfacet
facet normal -1.0 0.0 0.0
 outer loop
  vertex 0.0 7.127786347802716 15.714165625023275
  vertex 0.0 8.989119136606996 21.460239865752357
  vertex 0.0 12.571333 18.856998750016103
 endloop
endfacet
facet normal -1.0 0.0 0.0
 outer loop
  vertex 0.0 12.571333 6.285666250016001
  vertex 0.0 5.642532948749491 9.428499375023225
  vertex 0.0 12.571333 12.571332500030449
 endloop
endfacet
facet normal -1.0 -0.0 0.0
 outer loop
  vertex 0.0 12.571333 12.571332500030449
  vertex 0.0 5.642532948749491 9.428499375023225
  vertex 0.0 7.127786347802716 15.714165625023275
 endloop
endfacet
facet normal -1.0 -0.0 0.0
 outer loop
  vertex 0.0 12.571333 6.285666250016001
  vertex 0.0 7.773796345203551 4.445159049429755
  vertex 0.0 5.642532948749491 9.428499375023225
 endloop
endfacet
facet normal -1.0 0.0 -0.0
 outer loop
  vertex 0.0 6.2856665000165135 25.142665
  vertex 0.0 8.989119136606996 21.460239865752357
  vertex 0.0 4.825964542794083 20.8545218584094
 endloop
endfacet
facet normal -1.0 0.0 0.0
 outer loop
  vertex 0.0 6.2856665000165135 0.0
  vertex 0.0 3.7392017968843985 3.9035507927156097
  vertex 0.0 7.773796345203551 4.445159049429755
 endloop
endfacet
facet normal -1.0 0.0 0.0
 outer loop
  vertex 0.0 0.0 18.856998750016103
  vertex 0.0 7.127786347802716 15.714165625023275
  vertex 0.0 0.0 12.571332500030449
 endloop
endfacet
facet normal -1.0 0.0 0.0
 outer loop
  vertex 0.0 0.0 18.856998750016103
  vertex 0.0 4.825964542794083 20.8545218584094
  vertex 0.0 7.127786347802716 15.714165625023275
 endloop
endfacet
facet normal -1.0 0.0 0.0
 outer loop
  vertex 0.0 0.0 12.571332500030449
  vertex 0.0 5.642532948749491 9.428499375023225
  vertex 0.0 0.0 6.285666250016001
 endloop
endfacet
facet normal -1.0 0.0 0.0
 outer loop
  vertex 0.0 7.127786347802716 15.714165625023275
  vertex 0.0 5.642532948749491 9.428499375023225
  vertex 0.0 0.0 12.571332500030449
 endloop
endfacet
facet normal -1.0 0.0 0.0
 outer loop
  vertex 0.0 5.642532948749491 9.428499375023225
  vertex 0.0 3.7392017968843985 3.9035507927156097
  vertex 0.0 0.0 6.285666250016001
 endloop
endfacet
facet normal -1.0 0.0 0.0
 outer loop
  vertex 0.0 4.825964542794083 20.8545218584094
  vertex 0.0 8.989119136606996 21.460239865752357
  vertex 0.0 7.127786347802716 15.714165625023275
 endloop
endfacet
facet normal -1.0 -0.0 0.0
 outer loop
  vertex 0.0 7.773796345203551 4.445159049429755
  vertex 0.0 3.7392017968843985 3.9035507927156097
  vertex 0.0 5.642532948749491 9.428499375023225
 endloop
endfacet
endsolid
