solid
facet normal -1.0 0.0 0.0
 outer loop
  vertex 13.368408 13.368408 6.684204000017317
  vertex 13.368408 9.60854325201086 9.608543226975044
  vertex 13.368408 13.368408 13.368408
 endloop
endfacet
facet normal -1.0 -0.0 0.0
 outer loop
  vertex 13.368408 13.368408 13.368408
  vertex 13.368408 9.60854325201086 9.608543226975044
  vertex 13.368408 6.684204000017317 13.368408
 endloop
endfacet
facet normal -1.0 -3.5433924272517225e-16 0.0
 outer loop
  vertex 13.368408 13.368408 0.0
  vertex 13.368408000000002 8.3552549951605 5.0131529951518345
  vertex 13.368408 13.368408 6.684204000017317
 endloop
endfacet
facet normal -1.0 0.0 3.5433924340991506e-16
 outer loop
  vertex 13.368408 6.684204000017317 0.0
  vertex 13.368408000000002 8.3552549951605 5.0131529951518345
  vertex 13.368408 13.368408 0.0
 endloop
endfacet
facet normal -1.0 -0.0 0.0
 outer loop
  vertex 13.368408 6.684204000017317 13.368408
  vertex 13.368408 4.621500430816237 8.74690756919445
  vertex 13.368408 0.0 13.368408
 endloop
endfacet
facet normal -1.0 0.0 0.0
 outer loop
  vertex 13.368408 0.0 13.368408
  vertex 13.368408 4.621500430816237 8.74690756919445
  vertex 13.368408 0.0 6.684204000017317
 endloop
endfacet
facet normal -1.0 0.0 0.0
 outer loop
  vertex 13.368408 0.0 0.0
  vertex 13.368408 3.3421020000086603 3.3421020000086603
  vertex 13.368408 6.684204000017317 0.0
 endloop
endfacet
facet normal -1.0 0.0 0.0
 outer loop
  vertex 13.368408 0.0 6.684204000017317
  vertex 13.368408 3.3421020000086603 3.3421020000086603
  vertex 13.368408 0.0 0.0
 endloop
endfacet
facet normal -1.0 -2.4803746921627117e-16 -3.1890531990602773e-16
 outer loop
  vertex 13.368408000000002 8.3552549951605 5.0131529951518345
  vertex 13.368408 9.60854325201086 9.608543226975044
  vertex 13.368408 13.368408 6.684204000017317
 endloop
endfacet
facet normal -1.0 -0.0 0.0
 outer loop
  vertex 13.368408 9.60854325201086 9.608543226975044
  vertex 13.368408 4.621500430816237 8.74690756919445
  vertex 13.368408 6.684204000017317 13.368408
 endloop
endfacet
facet normal -1.0 2.657544326862846e-16 2.657544326862843e-16
 outer loop
  vertex 13.368408 3.3421020000086603 3.3421020000086603
  vertex 13.368408000000002 8.3552549951605 5.0131529951518345
  vertex 13.368408 6.684204000017317 0.0
 endloop
endfacet
facet normal -1.0 0.0 0.0
 outer loop
  vertex 13.368408 0.0 6.684204000017317
  vertex 13.368408 4.621500430816237 8.74690756919445
  vertex 13.368408 3.3421020000086603 3.3421020000086603
 endloop
endfacet
facet normal -1.0 3.8469347951710596e-16 -9.106270849817753e-17
 outer loop
  vertex 13.368408 3.3421020000086603 3.3421020000086603
  vertex 13.368408 4.621500430816237 8.74690756919445
  vertex 13.368408000000002 8.3552549951605 5.0131529951518345
 endloop
endfacet
facet normal -1.0 7.008908025517804e-17 -4.0566710694292686e-16
 outer loop
  vertex 13.368408000000002 8.3552549951605 5.0131529951518345
  vertex 13.368408 4.621500430816237 8.74690756919445
  vertex 13.368408 9.60854325201086 9.608543226975044
 endloop
endfacet
facet normal 0.0 1.0 -0.0
 outer loop
  vertex 13.368408 13.368408 6.684204000017317
  vertex 9.60854329108625 13.368408 9.608543168350806
  vertex 13.368408 13.368408 13.368408
 endloop
endfacet
facet normal 0.0 1.0 0.0
 outer loop
  vertex 13.368408 13.368408 13.368408
  vertex 9.60854329108625 13.368408 9.608543168350806
  vertex 6.684204000017317 13.368408 13.368408
 endloop
endfacet
facet normal -7.086784853509722e-16 1.0 0.0
 outer loop
  vertex 13.368408 13.368408 0.0
  vertex 8.355254994457546 13.368407999999997 5.013153016653344
  vertex 13.368408 13.368408 6.684204000017317
 endloop
endfacet
facet normal -0.0 1.0 7.086784837802945e-16
 outer loop
  vertex 6.684204000017317 13.368408 0.0
  vertex 8.355254994457546 13.368407999999997 5.013153016653344
  vertex 13.368408 13.368408 0.0
 endloop
endfacet
facet normal 0.0 1.0 0.0
 outer loop
  vertex 6.684204000017317 13.368408 13.368408
  vertex 4.621500464111683 13.368408 8.746907575200185
  vertex 0.0 13.368408 13.368408
 endloop
endfacet
facet normal 0.0 1.0 0.0
 outer loop
  vertex 0.0 13.368408 13.368408
  vertex 4.621500464111683 13.368408 8.746907575200185
  vertex 0.0 13.368408 6.684204000017317
 endloop
endfacet
facet normal 0.0 1.0 0.0
 outer loop
  vertex 0.0 13.368408 0.0
  vertex 3.3421020000086625 13.368408 3.3421020000086603
  vertex 6.684204000017317 13.368408 0.0
 endloop
endfacet
facet normal 0.0 1.0 0.0
 outer loop
  vertex 0.0 13.368408 6.684204000017317
  vertex 3.3421020000086625 13.368408 3.3421020000086603
  vertex 0.0 13.368408 0.0
 endloop
endfacet
facet normal -4.960749388619895e-16 1.0 -6.37810646521778e-16
 outer loop
  vertex 8.355254994457546 13.368407999999997 5.013153016653344
  vertex 9.60854329108625 13.368408 9.608543168350806
  vertex 13.368408 13.368408 6.684204000017317
 endloop
endfacet
facet normal 0.0 1.0 0.0
 outer loop
  vertex 9.60854329108625 13.368408 9.608543168350806
  vertex 4.621500464111683 13.368408 8.746907575200185
  vertex 6.684204000017317 13.368408 13.368408
 endloop
endfacet
facet normal 5.315088637187274e-16 1.0 5.315088637187265e-16
 outer loop
  vertex 3.3421020000086625 13.368408 3.3421020000086603
  vertex 8.355254994457546 13.368407999999997 5.013153016653344
  vertex 6.684204000017317 13.368408 0.0
 endloop
endfacet
facet normal -0.0 1.0 0.0
 outer loop
  vertex 0.0 13.368408 6.684204000017317
  vertex 4.621500464111683 13.368408 8.746907575200185
  vertex 3.3421020000086625 13.368408 3.3421020000086603
 endloop
endfacet
facet normal 7.693869616413932e-16 1.0 -1.8212542215082477e-16
 outer loop
  vertex 3.3421020000086625 13.368408 3.3421020000086603
  vertex 4.621500464111683 13.368408 8.746907575200185
  vertex 8.355254994457546 13.368407999999997 5.013153016653344
 endloop
endfacet
facet normal 1.4017815209039687e-16 1.0 -8.113342269494189e-16
 outer loop
  vertex 8.355254994457546 13.368407999999997 5.013153016653344
  vertex 4.621500464111683 13.368408 8.746907575200185
  vertex 9.60854329108625 13.368408 9.608543168350806
 endloop
endfacet
facet normal 4.72452314400701e-16 0.0 -1.0
 outer loop
  vertex 13.368408 6.684204000017317 13.368408
  vertex 9.608543172893516 9.608543172893516 13.368407999999999
  vertex 13.368408 13.368408 13.368408
 endloop
endfacet
facet normal 0.0 4.72452314400701e-16 -1.0
 outer loop
  vertex 13.368408 13.368408 13.368408
  vertex 9.608543172893516 9.608543172893516 13.368407999999999
  vertex 6.684204000017317 13.368408 13.368408
 endloop
endfacet
facet normal 0.0 0.0 -1.0
 outer loop
  vertex 13.368408 0.0 13.368408
  vertex 8.746907635194852 4.621500364815835 13.368408
  vertex 13.368408 6.684204000017317 13.368408
 endloop
endfacet
facet normal 0.0 0.0 -1.0
 outer loop
  vertex 6.684204000017317 0.0 13.368408
  vertex 8.746907635194852 4.621500364815835 13.368408
  vertex 13.368408 0.0 13.368408
 endloop
endfacet
facet normal -0.0 0.0 -1.0
 outer loop
  vertex 6.684204000017317 13.368408 13.368408
  vertex 5.013152911885106 8.355254911893772 13.368408
  vertex 0.0 13.368408 13.368408
 endloop
endfacet
facet normal 0.0 0.0 -1.0
 outer loop
  vertex 0.0 13.368408 13.368408
  vertex 5.013152911885106 8.355254911893772 13.368408
  vertex 0.0 6.684204000017317 13.368408
 endloop
endfacet
facet normal 0.0 0.0 -1.0
 outer loop
  vertex 0.0 0.0 13.368408
  vertex 3.3421020000086603 3.3421020000086603 13.368408
  vertex 6.684204000017317 0.0 13.368408
 endloop
endfacet
facet normal 0.0 0.0 -1.0
 outer loop
  vertex 0.0 6.684204000017317 13.368408
  vertex 3.3421020000086603 3.3421020000086603 13.368408
  vertex 0.0 0.0 13.368408
 endloop
endfacet
facet normal 1.7226339183918657e-16 -3.859572042445203e-16 -1.0
 outer loop
  vertex 13.368408 6.684204000017317 13.368408
  vertex 8.746907635194852 4.621500364815835 13.368408
  vertex 9.608543172893516 9.608543172893516 13.368407999999999
 endloop
endfacet
facet normal -4.252070924286844e-16 1.4173570246044525e-16 -1.0
 outer loop
  vertex 6.684204000017317 13.368408 13.368408
  vertex 9.608543172893516 9.608543172893516 13.368407999999999
  vertex 5.013152911885106 8.355254911893772 13.368408
 endloop
endfacet
facet normal 0.0 0.0 -1.0
 outer loop
  vertex 3.3421020000086603 3.3421020000086603 13.368408
  vertex 8.746907635194852 4.621500364815835 13.368408
  vertex 6.684204000017317 0.0 13.368408
 endloop
endfacet
facet normal 0.0 0.0 -1.0
 outer loop
  vertex 0.0 6.684204000017317 13.368408
  vertex 5.013152911885106 8.355254911893772 13.368408
  vertex 3.3421020000086603 3.3421020000086603 13.368408
 endloop
endfacet
facet normal 0.0 -0.0 -1.0
 outer loop
  vertex 5.013152911885106 8.355254911893772 13.368408
  vertex 8.746907635194852 4.621500364815835 13.368408
  vertex 3.3421020000086603 3.3421020000086603 13.368408
 endloop
endfacet
facet normal -3.0371934698573556e-16 -3.037193613211744e-16 -1.0
 outer loop
  vertex 9.608543172893516 9.608543172893516 13.368407999999999
  vertex 8.746907635194852 4.621500364815835 13.368408
  vertex 5.013152911885106 8.355254911893772 13.368408
 endloop
endfacet
facet normal 0.0 0.0 -1.0
 outer loop
  vertex 13.368408 6.684204000017317 0.0
  vertex 9.608543195750022 9.608543165274684 0.0
  vertex 13.368408 13.368408 0.0
 endloop
endfacet
facet normal -0.0 0.0 -1.0
 outer loop
  vertex 13.368408 13.368408 0.0
  vertex 9.608543195750022 9.608543165274684 0.0
  vertex 6.684204000017317 13.368408 0.0
 endloop
endfacet
facet normal 0.0 0.0 -1.0
 outer loop
  vertex 13.368408 0.0 0.0
  vertex 8.746907618597865 4.621500313428032 0.0
  vertex 13.368408 6.684204000017317 0.0
 endloop
endfacet
facet normal 0.0 0.0 -1.0
 outer loop
  vertex 6.684204000017317 0.0 0.0
  vertex 8.746907618597865 4.621500313428032 0.0
  vertex 13.368408 0.0 0.0
 endloop
endfacet
facet normal -0.0 0.0 -1.0
 outer loop
  vertex 6.684204000017317 13.368408 0.0
  vertex 5.013152911885106 8.355254911893772 0.0
  vertex 0.0 13.368408 0.0
 endloop
endfacet
facet normal 0.0 0.0 -1.0
 outer loop
  vertex 0.0 13.368408 0.0
  vertex 5.013152911885106 8.355254911893772 0.0
  vertex 0.0 6.684204000017317 0.0
 endloop
endfacet
facet normal 0.0 0.0 -1.0
 outer loop
  vertex 0.0 0.0 0.0
  vertex 3.3421020000086625 3.3421020000086603 0.0
  vertex 6.684204000017317 0.0 0.0
 endloop
endfacet
facet normal 0.0 0.0 -1.0
 outer loop
  vertex 0.0 6.684204000017317 0.0
  vertex 3.3421020000086625 3.3421020000086603 0.0
  vertex 0.0 0.0 0.0
 endloop
endfacet
facet normal -0.0 0.0 -1.0
 outer loop
  vertex 13.368408 6.684204000017317 0.0
  vertex 8.746907618597865 4.621500313428032 0.0
  vertex 9.608543195750022 9.608543165274684 0.0
 endloop
endfacet
facet normal 0.0 -0.0 -1.0
 outer loop
  vertex 6.684204000017317 13.368408 0.0
  vertex 9.608543195750022 9.608543165274684 0.0
  vertex 5.013152911885106 8.355254911893772 0.0
 endloop
endfacet
facet normal 0.0 0.0 -1.0
 outer loop
  vertex 3.3421020000086625 3.3421020000086603 0.0
  vertex 8.746907618597865 4.621500313428032 0.0
  vertex 6.684204000017317 0.0 0.0
 endloop
endfacet
facet normal 0.0 0.0 -1.0
 outer loop
  vertex 0.0 6.684204000017317 0.0
  vertex 5.013152911885106 8.355254911893772 0.0
  vertex 3.3421020000086625 3.3421020000086603 0.0
 endloop
endfacet
facet normal 0.0 -0.0 -1.0
 outer loop
  vertex 5.013152911885106 8.355254911893772 0.0
  vertex 8.746907618597865 4.621500313428032 0.0
  vertex 3.3421020000086625 3.3421020000086603 0.0
 endloop
endfacet
facet normal 0.0 0.0 -1.0
 outer loop
  vertex 9.608543195750022 9.608543165274684 0.0
  vertex 8.746907618597865 4.621500313428032 0.0
  vertex 5.013152911885106 8.355254911893772 0.0
 endloop
endfacet
facet normal 0.0 1.0 -0.0
 outer loop
  vertex 13.368408 0.0 6.684204000017317
  vertex 9.60854329108625 0.0 9.608543168350806
  vertex 13.368408 0.0 13.368408
 endloop
endfacet
facet normal 0.0 1.0 0.0
 outer loop
  vertex 13.368408 0.0 13.368408
  vertex 9.60854329108625 0.0 9.608543168350806
  vertex 6.684204000017317 0.0 13.368408
 endloop
endfacet
facet normal 0.0 1.0 -0.0
 outer loop
  vertex 13.368408 0.0 0.0
  vertex 8.355254994457546 0.0 5.013153016653344
  vertex 13.368408 0.0 6.684204000017317
 endloop
endfacet
facet normal 0.0 1.0 0.0
 outer loop
  vertex 6.684204000017317 0.0 0.0
  vertex 8.355254994457546 0.0 5.013153016653344
  vertex 13.368408 0.0 0.0
 endloop
endfacet
facet normal 0.0 1.0 0.0
 outer loop
  vertex 6.684204000017317 0.0 13.368408
  vertex 4.621500464111685 0.0 8.746907575200186
  vertex 0.0 0.0 13.368408
 endloop
endfacet
facet normal 0.0 1.0 0.0
 outer loop
  vertex 0.0 0.0 13.368408
  vertex 4.621500464111685 0.0 8.746907575200186
  vertex 0.0 0.0 6.684204000017317
 endloop
endfacet
facet normal 0.0 1.0 0.0
 outer loop
  vertex 0.0 0.0 0.0
  vertex 3.3421020000086625 0.0 3.3421020000086603
  vertex 6.684204000017317 0.0 0.0
 endloop
endfacet
facet normal 0.0 1.0 0.0
 outer loop
  vertex 0.0 0.0 6.684204000017317
  vertex 3.3421020000086625 0.0 3.3421020000086603
  vertex 0.0 0.0 0.0
 endloop
endfacet
facet normal 0.0 1.0 0.0
 outer loop
  vertex 8.355254994457546 0.0 5.013153016653344
  vertex 9.60854329108625 0.0 9.608543168350806
  vertex 13.368408 0.0 6.684204000017317
 endloop
endfacet
facet normal 0.0 1.0 0.0
 outer loop
  vertex 9.60854329108625 0.0 9.608543168350806
  vertex 4.621500464111685 0.0 8.746907575200186
  vertex 6.684204000017317 0.0 13.368408
 endloop
endfacet
facet normal -0.0 1.0 0.0
 outer loop
  vertex 3.3421020000086625 0.0 3.3421020000086603
  vertex 8.355254994457546 0.0 5.013153016653344
  vertex 6.684204000017317 0.0 0.0
 endloop
endfacet
facet normal -0.0 1.0 0.0
 outer loop
  vertex 0.0 0.0 6.684204000017317
  vertex 4.621500464111685 0.0 8.746907575200186
  vertex 3.3421020000086625 0.0 3.3421020000086603
 endloop
endfacet
facet normal 0.0 1.0 0.0
 outer loop
  vertex 3.3421020000086625 0.0 3.3421020000086603
  vertex 4.621500464111685 0.0 8.746907575200186
  vertex 8.355254994457546 0.0 5.013153016653344
 endloop
endfacet
facet normal 0.0 1.0 -0.0
 outer loop
  vertex 8.355254994457546 0.0 5.013153016653344
  vertex 4.621500464111685 0.0 8.746907575200186
  vertex 9.60854329108625 0.0 9.608543168350806
 endloop
endfacet
facet normal -1.0 0.0 0.0
 outer loop
  vertex 0.0 13.368408 6.684204000017317
  vertex 0.0 9.60854329108625 9.608543168350806
  vertex 0.0 13.368408 13.368408
 endloop
endfacet
facet normal -1.0 -0.0 0.0
 outer loop
  vertex 0.0 13.368408 13.368408
  vertex 0.0 9.60854329108625 9.608543168350806
  vertex 0.0 6.684204000017317 13.368408
 endloop
endfacet
facet normal -1.0 0.0 0.0
 outer loop
  vertex 0.0 13.368408 0.0
  vertex 0.0 8.355254994457546 5.013153016653344
  vertex 0.0 13.368408 6.684204000017317
 endloop
endfacet
facet normal -1.0 0.0 0.0
 outer loop
  vertex 0.0 6.684204000017317 0.0
  vertex 0.0 8.355254994457546 5.013153016653344
  vertex 0.0 13.368408 0.0
 endloop
endfacet
facet normal -1.0 -0.0 0.0
 outer loop
  vertex 0.0 6.684204000017317 13.368408
  vertex 0.0 4.621500464111685 8.746907575200186
  vertex 0.0 0.0 13.368408
 endloop
endfacet
facet normal -1.0 0.0 0.0
 outer loop
  vertex 0.0 0.0 13.368408
  vertex 0.0 4.621500464111685 8.746907575200186
  vertex 0.0 0.0 6.684204000017317
 endloop
endfacet
facet normal -1.0 0.0 0.0
 outer loop
  vertex 0.0 0.0 0.0
  vertex 0.0 3.3421020000086625 3.3421020000086603
  vertex 0.0 6.684204000017317 0.0
 endloop
endfacet
facet normal -1.0 0.0 0.0
 outer loop
  vertex 0.0 0.0 6.684204000017317
  vertex 0.0 3.3421020000086625 3.3421020000086603
  vertex 0.0 0.0 0.0
 endloop
endfacet
facet normal -1.0 0.0 0.0
 outer loop
  vertex 0.0 8.355254994457546 5.013153016653344
  vertex 0.0 9.60854329108625 9.608543168350806
  vertex 0.0 13.368408 6.684204000017317
 endloop
endfacet
facet normal -1.0 -0.0 0.0
 outer loop
  vertex 0.0 9.60854329108625 9.608543168350806
  vertex 0.0 4.621500464111685 8.746907575200186
  vertex 0.0 6.684204000017317 13.368408
 endloop
endfacet
facet normal -1.0 0.0 0.0
 outer loop
  vertex 0.0 3.3421020000086625 3.3421020000086603
  vertex 0.0 8.355254994457546 5.013153016653344
  vertex 0.0 6.684204000017317 0.0
 endloop
endfacet
facet normal -1.0 0.0 0.0
 outer loop
  vertex 0.0 0.0 6.684204000017317
  vertex 0.0 4.621500464111685 8.746907575200186
  vertex 0.0 3.3421020000086625 3.3421020000086603
 endloop
endfacet
facet normal -1.0 0.0 0.0
 outer loop
  vertex 0.0 3.3421020000086625 3.3421020000086603
  vertex 0.0 4.621500464111685 8.746907575200186
  vertex 0.0 8.355254994457546 5.013153016653344
 endloop
endfacet
facet normal -1.0 0.0 0.0
 outer loop
  vertex 0.0 8.355254994457546 5.013153016653344
  vertex 0.0 4.621500464111685 8.746907575200186
  vertex 0.0 9.60854329108625 9.608543168350806
 endloop
endfacet
endsolid
