solid
facet normal -1.0 0.0 0.0
 outer loop
  vertex 12.571333 12.571333 6.2856665000165135
  vertex 12.571333 9.03564554010537 9.035645583688982
  vertex 12.571333 12.571333 12.571333
 endloop
endfacet
facet normal -1.0 -0.0 0.0
 outer loop
  vertex 12.571333 12.571333 12.571333
  vertex 12.571333 9.03564554010537 9.035645583688982
  vertex 12.571333 6.2856665000165135 12.571333
 endloop
endfacet
facet normal -1.0 -3.9318868862981337e-16 0.0
 outer loop
  vertex 12.571333 12.571333 0.0
  vertex 12.571333000000001 8.053510156238875 4.3868713948823626
  vertex 12.571333 12.571333 6.2856665000165135
 endloop
endfacet
facet normal -1.0 0.0 4.0492567014216856e-16
 outer loop
  vertex 12.571333 6.2856665000165135 0.0
  vertex 12.571333000000001 8.053510156238875 4.3868713948823626
  vertex 12.571333 12.571333 0.0
 endloop
endfacet
facet normal -1.0 -0.0 0.0
 outer loop
  vertex 12.571333 6.2856665000165135 12.571333
  vertex 12.571333 4.714249796487783 7.857083068700501
  vertex 12.571333 0.0 12.571333
 endloop
endfacet
facet normal -1.0 0.0 0.0
 outer loop
  vertex 12.571333 0.0 12.571333
  vertex 12.571333 4.714249796487783 7.857083068700501
  vertex 12.571333 0.0 6.2856665000165135
 endloop
endfacet
facet normal -1.0 0.0 0.0
 outer loop
  vertex 12.571333 0.0 0.0
  vertex 12.571333 3.142833261110487 3.142833261110487
  vertex 12.571333 6.2856665000165135 0.0
 endloop
endfacet
facet normal -1.0 0.0 0.0
 outer loop
  vertex 12.571333 0.0 6.2856665000165135
  vertex 12.571333 3.142833261110487 3.142833261110487
  vertex 12.571333 0.0 0.0
 endloop
endfacet
facet normal -1.0 -2.5525555841731955e-16 -3.281857241471327e-16
 outer loop
  vertex 12.571333000000001 8.053510156238875 4.3868713948823626
  vertex 12.571333 9.03564554010537 9.035645583688982
  vertex 12.571333 12.571333 6.2856665000165135
 endloop
endfacet
facet normal -1.0 0.0 -0.0
 outer loop
  vertex 12.571333 6.2856665000165135 12.571333
  vertex 12.571333 9.03564554010537 9.035645583688982
  vertex 12.571333 4.714249796487783 7.857083068700501
 endloop
endfacet
facet normal -1.0 2.886172363132769e-16 2.886172342741646e-16
 outer loop
  vertex 12.571333 3.142833261110487 3.142833261110487
  vertex 12.571333000000001 8.053510156238875 4.3868713948823626
  vertex 12.571333 6.2856665000165135 0.0
 endloop
endfacet
facet normal -1.0 0.0 0.0
 outer loop
  vertex 12.571333 0.0 6.2856665000165135
  vertex 12.571333 4.714249796487783 7.857083068700501
  vertex 12.571333 3.142833261110487 3.142833261110487
 endloop
endfacet
facet normal -1.0 3.9509737841299125e-16 -1.3169912050965077e-16
 outer loop
  vertex 12.571333 4.714249796487783 7.857083068700501
  vertex 12.571333000000001 8.053510156238875 4.3868713948823626
  vertex 12.571333 3.142833261110487 3.142833261110487
 endloop
endfacet
facet normal -1.0 1.1058432354234871e-16 -4.054758394139206e-16
 outer loop
  vertex 12.571333 4.714249796487783 7.857083068700501
  vertex 12.571333 9.03564554010537 9.035645583688982
  vertex 12.571333000000001 8.053510156238875 4.3868713948823626
 endloop
endfacet
facet normal 0.0 1.0 -0.0
 outer loop
  vertex 12.571333 12.571333 6.2856665000165135
  vertex 9.03564554010537 12.571333 9.035645583688982
  vertex 12.571333 12.571333 12.571333
 endloop
endfacet
facet normal 0.0 1.0 0.0
 outer loop
  vertex 12.571333 12.571333 12.571333
  vertex 9.03564554010537 12.571333 9.035645583688982
  vertex 6.2856665000165135 12.571333 12.571333
 endloop
endfacet
facet normal 3.9318868862981337e-16 1.0 -0.0
 outer loop
  vertex 12.571333 12.571333 0.0
  vertex 8.053510156238875 12.571333000000001 4.3868713948823626
  vertex 12.571333 12.571333 6.2856665000165135
 endloop
endfacet
facet normal 0.0 1.0 -4.0492567014216856e-16
 outer loop
  vertex 6.2856665000165135 12.571333 0.0
  vertex 8.053510156238875 12.571333000000001 4.3868713948823626
  vertex 12.571333 12.571333 0.0
 endloop
endfacet
facet normal 0.0 1.0 0.0
 outer loop
  vertex 6.2856665000165135 12.571333 12.571333
  vertex 4.714249796487783 12.571333 7.857083068700501
  vertex 0.0 12.571333 12.571333
 endloop
endfacet
facet normal 0.0 1.0 0.0
 outer loop
  vertex 0.0 12.571333 12.571333
  vertex 4.714249796487783 12.571333 7.857083068700501
  vertex 0.0 12.571333 6.2856665000165135
 endloop
endfacet
facet normal 0.0 1.0 0.0
 outer loop
  vertex 0.0 12.571333 0.0
  vertex 3.142833261110487 12.571333 3.142833261110487
  vertex 6.2856665000165135 12.571333 0.0
 endloop
endfacet
facet normal 0.0 1.0 0.0
 outer loop
  vertex 0.0 12.571333 6.2856665000165135
  vertex 3.142833261110487 12.571333 3.142833261110487
  vertex 0.0 12.571333 0.0
 endloop
endfacet
facet normal 2.5525555841731955e-16 1.0 3.281857241471327e-16
 outer loop
  vertex 8.053510156238875 12.571333000000001 4.3868713948823626
  vertex 9.03564554010537 12.571333 9.035645583688982
  vertex 12.571333 12.571333 6.2856665000165135
 endloop
endfacet
facet normal 0.0 1.0 0.0
 outer loop
  vertex 6.2856665000165135 12.571333 12.571333
  vertex 9.03564554010537 12.571333 9.035645583688982
  vertex 4.714249796487783 12.571333 7.857083068700501
 endloop
endfacet
facet normal -2.886172363132769e-16 1.0 -2.886172342741646e-16
 outer loop
  vertex 3.142833261110487 12.571333 3.142833261110487
  vertex 8.053510156238875 12.571333000000001 4.3868713948823626
  vertex 6.2856665000165135 12.571333 0.0
 endloop
endfacet
facet normal -0.0 1.0 0.0
 outer loop
  vertex 0.0 12.571333 6.2856665000165135
  vertex 4.714249796487783 12.571333 7.857083068700501
  vertex 3.142833261110487 12.571333 3.142833261110487
 endloop
endfacet
facet normal -3.9509737841299125e-16 1.0 1.3169912050965077e-16
 outer loop
  vertex 4.714249796487783 12.571333 7.857083068700501
  vertex 8.053510156238875 12.571333000000001 4.3868713948823626
  vertex 3.142833261110487 12.571333 3.142833261110487
 endloop
endfacet
facet normal -1.1058432354234871e-16 1.0 4.054758394139206e-16
 outer loop
  vertex 4.714249796487783 12.571333 7.857083068700501
  vertex 9.03564554010537 12.571333 9.035645583688982
  vertex 8.053510156238875 12.571333000000001 4.3868713948823626
 endloop
endfacet
facet normal 0.0 0.0 -1.0
 outer loop
  vertex 12.571333 6.2856665000165135 12.571333
  vertex 9.03564554010537 9.035645583688982 12.571333
  vertex 12.571333 12.571333 12.571333
 endloop
endfacet
facet normal -0.0 0.0 -1.0
 outer loop
  vertex 12.571333 12.571333 12.571333
  vertex 9.03564554010537 9.035645583688982 12.571333
  vertex 6.2856665000165135 12.571333 12.571333
 endloop
endfacet
facet normal -3.9318868862981337e-16 0.0 -1.0
 outer loop
  vertex 12.571333 0.0 12.571333
  vertex 8.053510156238875 4.3868713948823626 12.571333000000001
  vertex 12.571333 6.2856665000165135 12.571333
 endloop
endfacet
facet normal 0.0 4.0492567014216856e-16 -1.0
 outer loop
  vertex 6.2856665000165135 0.0 12.571333
  vertex 8.053510156238875 4.3868713948823626 12.571333000000001
  vertex 12.571333 0.0 12.571333
 endloop
endfacet
facet normal -0.0 0.0 -1.0
 outer loop
  vertex 6.2856665000165135 12.571333 12.571333
  vertex 4.714249796487783 7.857083068700501 12.571333
  vertex 0.0 12.571333 12.571333
 endloop
endfacet
facet normal 0.0 0.0 -1.0
 outer loop
  vertex 0.0 12.571333 12.571333
  vertex 4.714249796487783 7.857083068700501 12.571333
  vertex 0.0 6.2856665000165135 12.571333
 endloop
endfacet
facet normal 0.0 0.0 -1.0
 outer loop
  vertex 0.0 0.0 12.571333
  vertex 3.142833261110487 3.142833261110487 12.571333
  vertex 6.2856665000165135 0.0 12.571333
 endloop
endfacet
facet normal 0.0 0.0 -1.0
 outer loop
  vertex 0.0 6.2856665000165135 12.571333
  vertex 3.142833261110487 3.142833261110487 12.571333
  vertex 0.0 0.0 12.571333
 endloop
endfacet
facet normal -2.5525555841731955e-16 -3.281857241471327e-16 -1.0
 outer loop
  vertex 8.053510156238875 4.3868713948823626 12.571333000000001
  vertex 9.03564554010537 9.035645583688982 12.571333
  vertex 12.571333 6.2856665000165135 12.571333
 endloop
endfacet
facet normal 0.0 -0.0 -1.0
 outer loop
  vertex 6.2856665000165135 12.571333 12.571333
  vertex 9.03564554010537 9.035645583688982 12.571333
  vertex 4.714249796487783 7.857083068700501 12.571333
 endloop
endfacet
facet normal 2.886172363132769e-16 2.886172342741646e-16 -1.0
 outer loop
  vertex 3.142833261110487 3.142833261110487 12.571333
  vertex 8.053510156238875 4.3868713948823626 12.571333000000001
  vertex 6.2856665000165135 0.0 12.571333
 endloop
endfacet
facet normal 0.0 0.0 -1.0
 outer loop
  vertex 0.0 6.2856665000165135 12.571333
  vertex 4.714249796487783 7.857083068700501 12.571333
  vertex 3.142833261110487 3.142833261110487 12.571333
 endloop
endfacet
facet normal 3.9509737841299125e-16 -1.3169912050965077e-16 -1.0
 outer loop
  vertex 4.714249796487783 7.857083068700501 12.571333
  vertex 8.053510156238875 4.3868713948823626 12.571333000000001
  vertex 3.142833261110487 3.142833261110487 12.571333
 endloop
endfacet
facet normal 1.1058432354234871e-16 -4.054758394139206e-16 -1.0
 outer loop
  vertex 4.714249796487783 7.857083068700501 12.571333
  vertex 9.03564554010537 9.035645583688982 12.571333
  vertex 8.053510156238875 4.3868713948823626 12.571333000000001
 endloop
endfacet
facet normal 0.0 0.0 -1.0
 outer loop
  vertex 12.571333 6.2856665000165135 0.0
  vertex 9.03564551683339 9.035645467329063 0.0
  vertex 12.571333 12.571333 0.0
 endloop
endfacet
facet normal -0.0 0.0 -1.0
 outer loop
  vertex 12.571333 12.571333 0.0
  vertex 9.03564551683339 9.035645467329063 0.0
  vertex 6.2856665000165135 12.571333 0.0
 endloop
endfacet
facet normal 0.0 0.0 -1.0
 outer loop
  vertex 12.571333 0.0 0.0
  vertex 8.053510146547554 4.386871370848284 0.0
  vertex 12.571333 6.2856665000165135 0.0
 endloop
endfacet
facet normal 0.0 0.0 -1.0
 outer loop
  vertex 6.2856665000165135 0.0 0.0
  vertex 8.053510146547554 4.386871370848284 0.0
  vertex 12.571333 0.0 0.0
 endloop
endfacet
facet normal -0.0 0.0 -1.0
 outer loop
  vertex 6.2856665000165135 12.571333 0.0
  vertex 4.714249796487783 7.857083068700497 0.0
  vertex 0.0 12.571333 0.0
 endloop
endfacet
facet normal 0.0 0.0 -1.0
 outer loop
  vertex 0.0 12.571333 0.0
  vertex 4.714249796487783 7.857083068700497 0.0
  vertex 0.0 6.2856665000165135 0.0
 endloop
endfacet
facet normal 0.0 0.0 -1.0
 outer loop
  vertex 0.0 0.0 0.0
  vertex 3.142833261110487 3.142833261110487 0.0
  vertex 6.2856665000165135 0.0 0.0
 endloop
endfacet
facet normal 0.0 0.0 -1.0
 outer loop
  vertex 0.0 6.2856665000165135 0.0
  vertex 3.142833261110487 3.142833261110487 0.0
  vertex 0.0 0.0 0.0
 endloop
endfacet
facet normal 0.0 0.0 -1.0
 outer loop
  vertex 8.053510146547554 4.386871370848284 0.0
  vertex 9.03564551683339 9.035645467329063 0.0
  vertex 12.571333 6.2856665000165135 0.0
 endloop
endfacet
facet normal 0.0 -0.0 -1.0
 outer loop
  vertex 6.2856665000165135 12.571333 0.0
  vertex 9.03564551683339 9.035645467329063 0.0
  vertex 4.714249796487783 7.857083068700497 0.0
 endloop
endfacet
facet normal 0.0 0.0 -1.0
 outer loop
  vertex 3.142833261110487 3.142833261110487 0.0
  vertex 8.053510146547554 4.386871370848284 0.0
  vertex 6.2856665000165135 0.0 0.0
 endloop
endfacet
facet normal 0.0 0.0 -1.0
 outer loop
  vertex 0.0 6.2856665000165135 0.0
  vertex 4.714249796487783 7.857083068700497 0.0
  vertex 3.142833261110487 3.142833261110487 0.0
 endloop
endfacet
facet normal 0.0 -0.0 -1.0
 outer loop
  vertex 4.714249796487783 7.857083068700497 0.0
  vertex 8.053510146547554 4.386871370848284 0.0
  vertex 3.142833261110487 3.142833261110487 0.0
 endloop
endfacet
facet normal 0.0 0.0 -1.0
 outer loop
  vertex 4.714249796487783 7.857083068700497 0.0
  vertex 9.03564551683339 9.035645467329063 0.0
  vertex 8.053510146547554 4.386871370848284 0.0
 endloop
endfacet
facet normal 0.0 1.0 -0.0
 outer loop
  vertex 12.571333 0.0 6.2856665000165135
  vertex 9.035645516833391 0.0 9.035645467329063
  vertex 12.571333 0.0 12.571333
 endloop
endfacet
facet normal 0.0 1.0 0.0
 outer loop
  vertex 12.571333 0.0 12.571333
  vertex 9.035645516833391 0.0 9.035645467329063
  vertex 6.2856665000165135 0.0 12.571333
 endloop
endfacet
facet normal 0.0 1.0 -0.0
 outer loop
  vertex 12.571333 0.0 0.0
  vertex 8.053510149091817 0.0 4.38687138289112
  vertex 12.571333 0.0 6.2856665000165135
 endloop
endfacet
facet normal 0.0 1.0 0.0
 outer loop
  vertex 6.2856665000165135 0.0 0.0
  vertex 8.053510149091817 0.0 4.38687138289112
  vertex 12.571333 0.0 0.0
 endloop
endfacet
facet normal 0.0 1.0 0.0
 outer loop
  vertex 6.2856665000165135 0.0 12.571333
  vertex 4.714249796487783 0.0 7.857083068700497
  vertex 0.0 0.0 12.571333
 endloop
endfacet
facet normal 0.0 1.0 0.0
 outer loop
  vertex 0.0 0.0 12.571333
  vertex 4.714249796487783 0.0 7.857083068700497
  vertex 0.0 0.0 6.2856665000165135
 endloop
endfacet
facet normal 0.0 1.0 0.0
 outer loop
  vertex 0.0 0.0 0.0
  vertex 3.142833261110487 0.0 3.142833261110487
  vertex 6.2856665000165135 0.0 0.0
 endloop
endfacet
facet normal 0.0 1.0 0.0
 outer loop
  vertex 0.0 0.0 6.2856665000165135
  vertex 3.142833261110487 0.0 3.142833261110487
  vertex 0.0 0.0 0.0
 endloop
endfacet
facet normal 0.0 1.0 0.0
 outer loop
  vertex 8.053510149091817 0.0 4.38687138289112
  vertex 9.035645516833391 0.0 9.035645467329063
  vertex 12.571333 0.0 6.2856665000165135
 endloop
endfacet
facet normal 0.0 1.0 0.0
 outer loop
  vertex 6.2856665000165135 0.0 12.571333
  vertex 9.035645516833391 0.0 9.035645467329063
  vertex 4.714249796487783 0.0 7.857083068700497
 endloop
endfacet
facet normal -0.0 1.0 0.0
 outer loop
  vertex 3.142833261110487 0.0 3.142833261110487
  vertex 8.053510149091817 0.0 4.38687138289112
  vertex 6.2856665000165135 0.0 0.0
 endloop
endfacet
facet normal -0.0 1.0 0.0
 outer loop
  vertex 0.0 0.0 6.2856665000165135
  vertex 4.714249796487783 0.0 7.857083068700497
  vertex 3.142833261110487 0.0 3.142833261110487
 endloop
endfacet
facet normal 0.0 1.0 0.0
 outer loop
  vertex 4.714249796487783 0.0 7.857083068700497
  vertex 8.053510149091817 0.0 4.38687138289112
  vertex 3.142833261110487 0.0 3.142833261110487
 endloop
endfacet
facet normal -0.0 1.0 0.0
 outer loop
  vertex 4.714249796487783 0.0 7.857083068700497
  vertex 9.035645516833391 0.0 9.035645467329063
  vertex 8.053510149091817 0.0 4.38687138289112
 endloop
endfacet
facet normal -1.0 0.0 0.0
 outer loop
  vertex 0.0 12.571333 6.2856665000165135
  vertex 0.0 9.035645516833391 9.035645467329063
  vertex 0.0 12.571333 12.571333
 endloop
endfacet
facet normal -1.0 -0.0 0.0
 outer loop
  vertex 0.0 12.571333 12.571333
  vertex 0.0 9.035645516833391 9.035645467329063
  vertex 0.0 6.2856665000165135 12.571333
 endloop
endfacet
facet normal -1.0 0.0 0.0
 outer loop
  vertex 0.0 12.571333 0.0
  vertex 0.0 8.053510149091817 4.38687138289112
  vertex 0.0 12.571333 6.2856665000165135
 endloop
endfacet
facet normal -1.0 0.0 0.0
 outer loop
  vertex 0.0 6.2856665000165135 0.0
  vertex 0.0 8.053510149091817 4.38687138289112
  vertex 0.0 12.571333 0.0
 endloop
endfacet
facet normal -1.0 -0.0 0.0
 outer loop
  vertex 0.0 6.2856665000165135 12.571333
  vertex 0.0 4.714249796487783 7.857083068700497
  vertex 0.0 0.0 12.571333
 endloop
endfacet
facet normal -1.0 0.0 0.0
 outer loop
  vertex 0.0 0.0 12.571333
  vertex 0.0 4.714249796487783 7.857083068700497
  vertex 0.0 0.0 6.2856665000165135
 endloop
endfacet
facet normal -1.0 0.0 0.0
 outer loop
  vertex 0.0 0.0 0.0
  vertex 0.0 3.142833261110487 3.142833261110487
  vertex 0.0 6.2856665000165135 0.0
 endloop
endfacet
facet normal -1.0 0.0 0.0
 outer loop
  vertex 0.0 0.0 6.2856665000165135
  vertex 0.0 3.142833261110487 3.142833261110487
  vertex 0.0 0.0 0.0
 endloop
endfacet
facet normal -1.0 0.0 0.0
 outer loop
  vertex 0.0 8.053510149091817 4.38687138289112
  vertex 0.0 9.035645516833391 9.035645467329063
  vertex 0.0 12.571333 6.2856665000165135
 endloop
endfacet
facet normal -1.0 0.0 -0.0
 outer loop
  vertex 0.0 6.2856665000165135 12.571333
  vertex 0.0 9.035645516833391 9.035645467329063
  vertex 0.0 4.714249796487783 7.857083068700497
 endloop
endfacet
facet normal -1.0 0.0 0.0
 outer loop
  vertex 0.0 3.142833261110487 3.142833261110487
  vertex 0.0 8.053510149091817 4.38687138289112
  vertex 0.0 6.2856665000165135 0.0
 endloop
endfacet
facet normal -1.0 0.0 0.0
 outer loop
  vertex 0.0 0.0 6.2856665000165135
  vertex 0.0 4.714249796487783 7.857083068700497
  vertex 0.0 3.142833261110487 3.142833261110487
 endloop
endfacet
facet normal -1.0 0.0 -0.0
 outer loop
  vertex 0.0 4.714249796487783 7.857083068700497
  vertex 0.0 8.053510149091817 4.38687138289112
  vertex 0.0 3.142833261110487 3.142833261110487
 endloop
endfacet
facet normal -1.0 0.0 0.0
 outer loop
  vertex 0.0 4.714249796487783 7.857083068700497
  vertex 0.0 9.035645516833391 9.035645467329063
  vertex 0.0 8.053510149091817 4.38687138289112
 endloop
endfacet
endsolid
