solid
facet normal -1.0 9.44316459212322e-16 0.0
 outer loop
  vertex 6.688368 6.688368 3.3441842500086807
  vertex 6.688367999999998 4.807264666397243 4.80726506463003
  vertex 6.688368 6.688368 6.6883685
 endloop
endfacet
facet normal -1.0 0.0 9.443164081250439e-16
 outer loop
  vertex 6.688368 6.688368 6.6883685
  vertex 6.688367999999998 4.807264666397243 4.80726506463003
  vertex 6.688368 3.3441840000086773 6.6883685
 endloop
endfacet
facet normal -1.0 3.77167792601602e-16 0.0
 outer loop
  vertex 6.688368 6.688368 0.0
  vertex 6.688367999999999 4.333505158786254 2.382731301063431
  vertex 6.688368 6.688368 3.3441842500086807
 endloop
endfacet
facet normal -1.0 0.0 -3.727564326299506e-16
 outer loop
  vertex 6.688368 3.3441840000086773 0.0
  vertex 6.688367999999999 4.333505158786254 2.382731301063431
  vertex 6.688368 6.688368 0.0
 endloop
endfacet
facet normal -1.0 0.0 3.5411860525123926e-16
 outer loop
  vertex 6.688368 3.3441840000086773 6.6883685
  vertex 6.688367999999999 2.5081381749440825 4.1802302476481294
  vertex 6.688368 0.0 6.6883685
 endloop
endfacet
facet normal -1.0 -3.5411861618027744e-16 -0.0
 outer loop
  vertex 6.688368 0.0 6.6883685
  vertex 6.688367999999999 2.5081381749440825 4.1802302476481294
  vertex 6.688368 0.0 3.3441842500086807
 endloop
endfacet
facet normal -1.0 0.0 -1.3561989683788558e-15
 outer loop
  vertex 6.688368 0.0 0.0
  vertex 6.688367999999997 1.964708158740292 1.964708218503846
  vertex 6.688368 3.3441840000086773 0.0
 endloop
endfacet
facet normal -1.0 -1.3561990096324488e-15 -0.0
 outer loop
  vertex 6.688368 0.0 3.3441842500086807
  vertex 6.688367999999997 1.964708158740292 1.964708218503846
  vertex 6.688368 0.0 0.0
 endloop
endfacet
facet normal -1.0 5.724002035731712e-16 -4.781778978387629e-16
 outer loop
  vertex 6.688367999999999 4.333505158786254 2.382731301063431
  vertex 6.688367999999998 4.807264666397243 4.80726506463003
  vertex 6.688368 6.688368 3.3441842500086807
 endloop
endfacet
facet normal -1.0 -5.311780169021479e-16 5.311778893559775e-16
 outer loop
  vertex 6.688368 3.3441840000086773 6.6883685
  vertex 6.688367999999998 4.807264666397243 4.80726506463003
  vertex 6.688367999999999 2.5081381749440825 4.1802302476481294
 endloop
endfacet
facet normal -1.0 8.801701830958237e-16 -7.382072012807004e-16
 outer loop
  vertex 6.688367999999997 1.964708158740292 1.964708218503846
  vertex 6.688367999999999 4.333505158786254 2.382731301063431
  vertex 6.688368 3.3441840000086773 0.0
 endloop
endfacet
facet normal -1.0 -6.767061099122867e-16 9.67762551430472e-16
 outer loop
  vertex 6.688368 0.0 3.3441842500086807
  vertex 6.688367999999999 2.5081381749440825 4.1802302476481294
  vertex 6.688367999999997 1.964708158740292 1.964708218503846
 endloop
endfacet
facet normal -1.0 6.359346253836615e-16 6.45794019108026e-16
 outer loop
  vertex 6.688367999999999 2.5081381749440825 4.1802302476481294
  vertex 6.688367999999999 4.333505158786254 2.382731301063431
  vertex 6.688367999999997 1.964708158740292 1.964708218503846
 endloop
endfacet
facet normal -1.0 -3.0252517010064045e-16 -3.072154553037037e-16
 outer loop
  vertex 6.688367999999999 2.5081381749440825 4.1802302476481294
  vertex 6.688367999999998 4.807264666397243 4.80726506463003
  vertex 6.688367999999999 4.333505158786254 2.382731301063431
 endloop
endfacet
facet normal -4.721582254495236e-16 1.0 0.0
 outer loop
  vertex 6.688368 6.688368 3.3441842500086807
  vertex 4.80726464983698 6.688367999999999 4.807265035988174
  vertex 6.688368 6.688368 6.6883685
 endloop
endfacet
facet normal 0.0 1.0 -4.721581968733973e-16
 outer loop
  vertex 6.688368 6.688368 6.6883685
  vertex 4.80726464983698 6.688367999999999 4.807265035988174
  vertex 3.3441840000086773 6.688368 6.6883685
 endloop
endfacet
facet normal 3.7716779269931535e-16 1.0 -0.0
 outer loop
  vertex 6.688368 6.688368 0.0
  vertex 4.333505159396331 6.6883680000000005 2.3827313093856297
  vertex 6.688368 6.688368 3.3441842500086807
 endloop
endfacet
facet normal 0.0 1.0 -3.72756431328019e-16
 outer loop
  vertex 3.3441840000086773 6.688368 0.0
  vertex 4.333505159396331 6.6883680000000005 2.3827313093856297
  vertex 6.688368 6.688368 0.0
 endloop
endfacet
facet normal 0.0 1.0 0.0
 outer loop
  vertex 3.3441840000086773 6.688368 6.6883685
  vertex 2.5081381665334583 6.688368 4.180230256993188
  vertex 0.0 6.688368 6.6883685
 endloop
endfacet
facet normal 0.0 1.0 0.0
 outer loop
  vertex 0.0 6.688368 6.6883685
  vertex 2.5081381665334583 6.688368 4.180230256993188
  vertex 0.0 6.688368 3.3441842500086807
 endloop
endfacet
facet normal 0.0 1.0 0.0
 outer loop
  vertex 0.0 6.688368 0.0
  vertex 1.9647081441025478 6.688368 1.9647082319222233
  vertex 3.3441840000086773 6.688368 0.0
 endloop
endfacet
facet normal 0.0 1.0 0.0
 outer loop
  vertex 0.0 6.688368 3.3441842500086807
  vertex 1.9647081441025478 6.688368 1.9647082319222233
  vertex 0.0 6.688368 0.0
 endloop
endfacet
facet normal 8.480006240403824e-17 1.0 7.160890302314989e-16
 outer loop
  vertex 4.333505159396331 6.6883680000000005 2.3827313093856297
  vertex 4.80726464983698 6.688367999999999 4.807265035988174
  vertex 6.688368 6.688368 3.3441842500086807
 endloop
endfacet
facet normal 4.249423787771988e-16 1.0 -1.4164741765502457e-16
 outer loop
  vertex 3.3441840000086773 6.688368 6.6883685
  vertex 4.80726464983698 6.688367999999999 4.807265035988174
  vertex 2.5081381665334583 6.688368 4.180230256993188
 endloop
endfacet
facet normal -3.336128793059789e-16 1.0 -2.342388069355541e-16
 outer loop
  vertex 1.9647081441025478 6.688368 1.9647082319222233
  vertex 4.333505159396331 6.6883680000000005 2.3827313093856297
  vertex 3.3441840000086773 6.688368 0.0
 endloop
endfacet
facet normal -0.0 1.0 0.0
 outer loop
  vertex 0.0 6.688368 3.3441842500086807
  vertex 2.5081381665334583 6.688368 4.180230256993188
  vertex 1.9647081441025478 6.688368 1.9647082319222233
 endloop
endfacet
facet normal -3.9191320943501294e-16 1.0 9.61296713750419e-17
 outer loop
  vertex 2.5081381665334583 6.688368 4.180230256993188
  vertex 4.333505159396331 6.6883680000000005 2.3827313093856297
  vertex 1.9647081441025478 6.688368 1.9647082319222233
 endloop
endfacet
facet normal 1.9699309280665923e-16 1.0 6.941662529439174e-16
 outer loop
  vertex 2.5081381665334583 6.688368 4.180230256993188
  vertex 4.80726464983698 6.688367999999999 4.807265035988174
  vertex 4.333505159396331 6.6883680000000005 2.3827313093856297
 endloop
endfacet
facet normal -9.443163641147817e-16 0.0 -1.0
 outer loop
  vertex 6.688368 3.3441840000086773 6.6883685
  vertex 4.807264476960412 4.8072644401891464 6.688368500000002
  vertex 6.688368 6.688368 6.6883685
 endloop
endfacet
facet normal -0.0 -9.443163456555602e-16 -1.0
 outer loop
  vertex 6.688368 6.688368 6.6883685
  vertex 4.807264476960412 4.8072644401891464 6.688368500000002
  vertex 3.3441840000086773 6.688368 6.6883685
 endloop
endfacet
facet normal 3.771677803560889e-16 0.0 -1.0
 outer loop
  vertex 6.688368 0.0 6.6883685
  vertex 4.33350508233088 2.3827310915904136 6.688368499999999
  vertex 6.688368 3.3441840000086773 6.6883685
 endloop
endfacet
facet normal 0.0 -3.727564654000835e-16 -1.0
 outer loop
  vertex 3.3441840000086773 0.0 6.6883685
  vertex 4.33350508233088 2.3827310915904136 6.688368499999999
  vertex 6.688368 0.0 6.6883685
 endloop
endfacet
facet normal -0.0 -7.082372795571134e-16 -1.0
 outer loop
  vertex 3.3441840000086773 6.688368 6.6883685
  vertex 2.508137981992875 4.180229992196921 6.688368500000002
  vertex 0.0 6.688368 6.6883685
 endloop
endfacet
facet normal 7.082372868452883e-16 0.0 -1.0
 outer loop
  vertex 0.0 6.688368 6.6883685
  vertex 2.508137981992875 4.180229992196921 6.688368500000002
  vertex 0.0 3.3441840000086773 6.6883685
 endloop
endfacet
facet normal 0.0 -9.041326963026985e-16 -1.0
 outer loop
  vertex 0.0 0.0 6.6883685
  vertex 1.9647081109131452 1.9647081082946878 6.688368499999998
  vertex 3.3441840000086773 0.0 6.6883685
 endloop
endfacet
facet normal -9.04132695097719e-16 -0.0 -1.0
 outer loop
  vertex 0.0 3.3441840000086773 6.6883685
  vertex 1.9647081109131452 1.9647081082946878 6.688368499999998
  vertex 0.0 0.0 6.6883685
 endloop
endfacet
facet normal -7.773337429156844e-17 1.1141781889733632e-15 -1.0
 outer loop
  vertex 4.33350508233088 2.3827310915904136 6.688368499999999
  vertex 4.807264476960412 4.8072644401891464 6.688368500000002
  vertex 6.688368 3.3441840000086773 6.6883685
 endloop
endfacet
facet normal 2.1247116538529134e-16 -7.790610026580379e-16 -1.0
 outer loop
  vertex 3.3441840000086773 6.688368 6.6883685
  vertex 4.807264476960412 4.8072644401891464 6.688368500000002
  vertex 2.508137981992875 4.180229992196921 6.688368500000002
 endloop
endfacet
facet normal 4.755758154860302e-16 -5.70217766074537e-16 -1.0
 outer loop
  vertex 1.9647081109131452 1.9647081082946878 6.688368499999998
  vertex 4.33350508233088 2.3827310915904136 6.688368499999999
  vertex 3.3441840000086773 0.0 6.6883685
 endloop
endfacet
facet normal 1.8918667291243678e-16 1.5571518451685627e-15 -1.0
 outer loop
  vertex 0.0 3.3441840000086773 6.6883685
  vertex 2.508137981992875 4.180229992196921 6.688368500000002
  vertex 1.9647081109131452 1.9647081082946878 6.688368499999998
 endloop
endfacet
facet normal 9.612966476204596e-17 1.5799771480056362e-15 -1.0
 outer loop
  vertex 2.508137981992875 4.180229992196921 6.688368500000002
  vertex 4.33350508233088 2.3827310915904136 6.688368499999999
  vertex 1.9647081109131452 1.9647081082946878 6.688368499999998
 endloop
endfacet
facet normal -3.165961157686807e-16 1.1608525182281662e-15 -1.0
 outer loop
  vertex 2.508137981992875 4.180229992196921 6.688368500000002
  vertex 4.807264476960412 4.8072644401891464 6.688368500000002
  vertex 4.33350508233088 2.3827310915904136 6.688368499999999
 endloop
endfacet
facet normal 0.0 0.0 -1.0
 outer loop
  vertex 6.688368 3.3441840000086773 0.0
  vertex 4.807264488928784 4.8072644944799 0.0
  vertex 6.688368 6.688368 0.0
 endloop
endfacet
facet normal -0.0 0.0 -1.0
 outer loop
  vertex 6.688368 6.688368 0.0
  vertex 4.807264488928784 4.8072644944799 0.0
  vertex 3.3441840000086773 6.688368 0.0
 endloop
endfacet
facet normal 0.0 0.0 -1.0
 outer loop
  vertex 6.688368 0.0 0.0
  vertex 4.180229992196921 2.5081379819928733 0.0
  vertex 6.688368 3.3441840000086773 0.0
 endloop
endfacet
facet normal 0.0 0.0 -1.0
 outer loop
  vertex 3.3441840000086773 0.0 0.0
  vertex 4.180229992196921 2.5081379819928733 0.0
  vertex 6.688368 0.0 0.0
 endloop
endfacet
facet normal -0.0 0.0 -1.0
 outer loop
  vertex 3.3441840000086773 6.688368 0.0
  vertex 2.3827310958027264 4.333505093172135 0.0
  vertex 0.0 6.688368 0.0
 endloop
endfacet
facet normal 0.0 0.0 -1.0
 outer loop
  vertex 0.0 6.688368 0.0
  vertex 2.3827310958027264 4.333505093172135 0.0
  vertex 0.0 3.3441840000086773 0.0
 endloop
endfacet
facet normal 0.0 0.0 -1.0
 outer loop
  vertex 0.0 0.0 0.0
  vertex 1.9647081020610875 1.9647081019416284 0.0
  vertex 3.3441840000086773 0.0 0.0
 endloop
endfacet
facet normal 0.0 0.0 -1.0
 outer loop
  vertex 0.0 3.3441840000086773 0.0
  vertex 1.9647081020610875 1.9647081019416284 0.0
  vertex 0.0 0.0 0.0
 endloop
endfacet
facet normal 0.0 0.0 -1.0
 outer loop
  vertex 4.180229992196921 2.5081379819928733 0.0
  vertex 4.807264488928784 4.8072644944799 0.0
  vertex 6.688368 3.3441840000086773 0.0
 endloop
endfacet
facet normal 0.0 -0.0 -1.0
 outer loop
  vertex 3.3441840000086773 6.688368 0.0
  vertex 4.807264488928784 4.8072644944799 0.0
  vertex 2.3827310958027264 4.333505093172135 0.0
 endloop
endfacet
facet normal 0.0 0.0 -1.0
 outer loop
  vertex 1.9647081020610875 1.9647081019416284 0.0
  vertex 4.180229992196921 2.5081379819928733 0.0
  vertex 3.3441840000086773 0.0 0.0
 endloop
endfacet
facet normal 0.0 0.0 -1.0
 outer loop
  vertex 0.0 3.3441840000086773 0.0
  vertex 2.3827310958027264 4.333505093172135 0.0
  vertex 1.9647081020610875 1.9647081019416284 0.0
 endloop
endfacet
facet normal 0.0 0.0 -1.0
 outer loop
  vertex 1.9647081020610875 1.9647081019416284 0.0
  vertex 2.3827310958027264 4.333505093172135 0.0
  vertex 4.180229992196921 2.5081379819928733 0.0
 endloop
endfacet
facet normal 0.0 0.0 -1.0
 outer loop
  vertex 2.3827310958027264 4.333505093172135 0.0
  vertex 4.807264488928784 4.8072644944799 0.0
  vertex 4.180229992196921 2.5081379819928733 0.0
 endloop
endfacet
facet normal 0.0 1.0 -0.0
 outer loop
  vertex 6.688368 0.0 3.3441842500086807
  vertex 4.807264651838585 0.0 4.8072650251795075
  vertex 6.688368 0.0 6.6883685
 endloop
endfacet
facet normal 0.0 1.0 0.0
 outer loop
  vertex 6.688368 0.0 6.6883685
  vertex 4.807264651838585 0.0 4.8072650251795075
  vertex 3.3441840000086773 0.0 6.6883685
 endloop
endfacet
facet normal 0.0 1.0 -0.0
 outer loop
  vertex 6.688368 0.0 0.0
  vertex 4.333505150271018 0.0 2.382731284782519
  vertex 6.688368 0.0 3.3441842500086807
 endloop
endfacet
facet normal 0.0 1.0 0.0
 outer loop
  vertex 3.3441840000086773 0.0 0.0
  vertex 4.333505150271018 0.0 2.382731284782519
  vertex 6.688368 0.0 0.0
 endloop
endfacet
facet normal 0.0 1.0 0.0
 outer loop
  vertex 3.3441840000086773 0.0 6.6883685
  vertex 2.508138174860133 0.0 4.180230254217632
  vertex 0.0 0.0 6.6883685
 endloop
endfacet
facet normal 0.0 1.0 0.0
 outer loop
  vertex 0.0 0.0 6.6883685
  vertex 2.508138174860133 0.0 4.180230254217632
  vertex 0.0 0.0 3.3441842500086807
 endloop
endfacet
facet normal 0.0 1.0 0.0
 outer loop
  vertex 0.0 0.0 0.0
  vertex 1.9647081636716794 0.0 1.9647082297165626
  vertex 3.3441840000086773 0.0 0.0
 endloop
endfacet
facet normal 0.0 1.0 0.0
 outer loop
  vertex 0.0 0.0 3.3441842500086807
  vertex 1.9647081636716794 0.0 1.9647082297165626
  vertex 0.0 0.0 0.0
 endloop
endfacet
facet normal 0.0 1.0 0.0
 outer loop
  vertex 4.333505150271018 0.0 2.382731284782519
  vertex 4.807264651838585 0.0 4.8072650251795075
  vertex 6.688368 0.0 3.3441842500086807
 endloop
endfacet
facet normal 0.0 1.0 0.0
 outer loop
  vertex 3.3441840000086773 0.0 6.6883685
  vertex 4.807264651838585 0.0 4.8072650251795075
  vertex 2.508138174860133 0.0 4.180230254217632
 endloop
endfacet
facet normal -0.0 1.0 0.0
 outer loop
  vertex 1.9647081636716794 0.0 1.9647082297165626
  vertex 4.333505150271018 0.0 2.382731284782519
  vertex 3.3441840000086773 0.0 0.0
 endloop
endfacet
facet normal -0.0 1.0 0.0
 outer loop
  vertex 0.0 0.0 3.3441842500086807
  vertex 2.508138174860133 0.0 4.180230254217632
  vertex 1.9647081636716794 0.0 1.9647082297165626
 endloop
endfacet
facet normal 0.0 1.0 0.0
 outer loop
  vertex 2.508138174860133 0.0 4.180230254217632
  vertex 4.333505150271018 0.0 2.382731284782519
  vertex 1.9647081636716794 0.0 1.9647082297165626
 endloop
endfacet
facet normal -0.0 1.0 0.0
 outer loop
  vertex 2.508138174860133 0.0 4.180230254217632
  vertex 4.807264651838585 0.0 4.8072650251795075
  vertex 4.333505150271018 0.0 2.382731284782519
 endloop
endfacet
facet normal -1.0 0.0 0.0
 outer loop
  vertex 0.0 6.688368 3.3441842500086807
  vertex 0.0 4.807264651838585 4.8072650251795075
  vertex 0.0 6.688368 6.6883685
 endloop
endfacet
facet normal -1.0 -0.0 0.0
 outer loop
  vertex 0.0 6.688368 6.6883685
  vertex 0.0 4.807264651838585 4.8072650251795075
  vertex 0.0 3.3441840000086773 6.6883685
 endloop
endfacet
facet normal -1.0 0.0 0.0
 outer loop
  vertex 0.0 6.688368 0.0
  vertex 0.0 4.333505150271018 2.382731284782519
  vertex 0.0 6.688368 3.3441842500086807
 endloop
endfacet
facet normal -1.0 0.0 0.0
 outer loop
  vertex 0.0 3.3441840000086773 0.0
  vertex 0.0 4.333505150271018 2.382731284782519
  vertex 0.0 6.688368 0.0
 endloop
endfacet
facet normal -1.0 -0.0 0.0
 outer loop
  vertex 0.0 3.3441840000086773 6.6883685
  vertex 0.0 2.508138174860133 4.180230254217632
  vertex 0.0 0.0 6.6883685
 endloop
endfacet
facet normal -1.0 0.0 0.0
 outer loop
  vertex 0.0 0.0 6.6883685
  vertex 0.0 2.508138174860133 4.180230254217632
  vertex 0.0 0.0 3.3441842500086807
 endloop
endfacet
facet normal -1.0 0.0 0.0
 outer loop
  vertex 0.0 0.0 0.0
  vertex 0.0 1.9647081636716794 1.9647082297165626
  vertex 0.0 3.3441840000086773 0.0
 endloop
endfacet
facet normal -1.0 0.0 0.0
 outer loop
  vertex 0.0 0.0 3.3441842500086807
  vertex 0.0 1.9647081636716794 1.9647082297165626
  vertex 0.0 0.0 0.0
 endloop
endfacet
facet normal -1.0 0.0 0.0
 outer loop
  vertex 0.0 4.333505150271018 2.382731284782519
  vertex 0.0 4.807264651838585 4.8072650251795075
  vertex 0.0 6.688368 3.3441842500086807
 endloop
endfacet
facet normal -1.0 0.0 -0.0
 outer loop
  vertex 0.0 3.3441840000086773 6.6883685
  vertex 0.0 4.807264651838585 4.8072650251795075
  vertex 0.0 2.508138174860133 4.180230254217632
 endloop
endfacet
facet normal -1.0 0.0 0.0
 outer loop
  vertex 0.0 1.9647081636716794 1.9647082297165626
  vertex 0.0 4.333505150271018 2.382731284782519
  vertex 0.0 3.3441840000086773 0.0
 endloop
endfacet
facet normal -1.0 0.0 0.0
 outer loop
  vertex 0.0 0.0 3.3441842500086807
  vertex 0.0 2.508138174860133 4.180230254217632
  vertex 0.0 1.9647081636716794 1.9647082297165626
 endloop
endfacet
facet normal -1.0 0.0 -0.0
 outer loop
  vertex 0.0 2.508138174860133 4.180230254217632
  vertex 0.0 4.333505150271018 2.382731284782519
  vertex 0.0 1.9647081636716794 1.9647082297165626
 endloop
endfacet
facet normal -1.0 0.0 0.0
 outer loop
  vertex 0.0 2.508138174860133 4.180230254217632
  vertex 0.0 4.807264651838585 4.8072650251795075
  vertex 0.0 4.333505150271018 2.382731284782519
 endloop
endfacet
endsolid
