solid
facet normal -1.0 0.0 0.0
 outer loop
  vertex 13.552875 13.552875 6.77643750001595
  vertex 13.552875 9.741128838574781 9.7411288454125
  vertex 13.552875 13.552875 13.552875
 endloop
endfacet
facet normal -1.0 -0.0 0.0
 outer loop
  vertex 13.552875 13.552875 13.552875
  vertex 13.552875 9.741128838574781 9.7411288454125
  vertex 13.552875 6.77643750001595 13.552875
 endloop
endfacet
facet normal -1.0 -3.647127238261329e-16 0.0
 outer loop
  vertex 13.552875 13.552875 0.0
  vertex 13.552875000000002 8.68231051635703 4.729388604168282
  vertex 13.552875 13.552875 6.77643750001595
 endloop
endfacet
facet normal -1.0 0.0 3.755996785365967e-16
 outer loop
  vertex 13.552875 6.77643750001595 0.0
  vertex 13.552875000000002 8.68231051635703 4.729388604168282
  vertex 13.552875 13.552875 0.0
 endloop
endfacet
facet normal -1.0 -0.0 0.0
 outer loop
  vertex 13.552875 6.77643750001595 13.552875
  vertex 13.552875 5.0823280361933225 8.470546830610218
  vertex 13.552875 0.0 13.552875
 endloop
endfacet
facet normal -1.0 0.0 0.0
 outer loop
  vertex 13.552875 0.0 13.552875
  vertex 13.552875 5.0823280361933225 8.470546830610218
  vertex 13.552875 0.0 6.77643750001595
 endloop
endfacet
facet normal -1.0 0.0 -5.242745403480332e-16
 outer loop
  vertex 13.552875 0.0 0.0
  vertex 13.552874999999998 3.3882187722124346 3.388218772212433
  vertex 13.552875 6.77643750001595 0.0
 endloop
endfacet
facet normal -1.0 -5.242745403480328e-16 -0.0
 outer loop
  vertex 13.552875 0.0 6.77643750001595
  vertex 13.552874999999998 3.3882187722124346 3.388218772212433
  vertex 13.552875 0.0 0.0
 endloop
endfacet
facet normal -1.0 -2.367691419155836e-16 -3.044174798304178e-16
 outer loop
  vertex 13.552875000000002 8.68231051635703 4.729388604168282
  vertex 13.552875 9.741128838574781 9.7411288454125
  vertex 13.552875 13.552875 6.77643750001595
 endloop
endfacet
facet normal -1.0 0.0 -0.0
 outer loop
  vertex 13.552875 6.77643750001595 13.552875
  vertex 13.552875 9.741128838574781 9.7411288454125
  vertex 13.552875 5.0823280361933225 8.470546830610218
 endloop
endfacet
facet normal -1.0 6.413997155111163e-16 1.1712516675634529e-16
 outer loop
  vertex 13.552874999999998 3.3882187722124346 3.388218772212433
  vertex 13.552875000000002 8.68231051635703 4.729388604168282
  vertex 13.552875 6.77643750001595 0.0
 endloop
endfacet
facet normal -1.0 -1.3106863551645185e-16 3.9320590998527683e-16
 outer loop
  vertex 13.552875 0.0 6.77643750001595
  vertex 13.552875 5.0823280361933225 8.470546830610218
  vertex 13.552874999999998 3.3882187722124346 3.388218772212433
 endloop
endfacet
facet normal -1.0 6.362555194295372e-16 1.3743120507964495e-16
 outer loop
  vertex 13.552875 5.0823280361933225 8.470546830610218
  vertex 13.552875000000002 8.68231051635703 4.729388604168282
  vertex 13.552874999999998 3.3882187722124346 3.388218772212433
 endloop
endfacet
facet normal -1.0 1.0257545194680048e-16 -3.761099970463207e-16
 outer loop
  vertex 13.552875 5.0823280361933225 8.470546830610218
  vertex 13.552875 9.741128838574781 9.7411288454125
  vertex 13.552875000000002 8.68231051635703 4.729388604168282
 endloop
endfacet
facet normal -4.660218092330934e-16 1.0 0.0
 outer loop
  vertex 13.552875 13.552875 6.77643750001595
  vertex 9.741128845193417 13.552874999999998 9.741128878505686
  vertex 13.552875 13.552875 13.552875
 endloop
endfacet
facet normal 0.0 1.0 -4.660218133058315e-16
 outer loop
  vertex 13.552875 13.552875 13.552875
  vertex 9.741128845193417 13.552874999999998 9.741128878505686
  vertex 6.77643750001595 13.552875 13.552875
 endloop
endfacet
facet normal 3.647127242719153e-16 1.0 -0.0
 outer loop
  vertex 13.552875 13.552875 0.0
  vertex 8.68231052231024 13.552875000000002 4.7293886804545995
  vertex 13.552875 13.552875 6.77643750001595
 endloop
endfacet
facet normal 0.0 1.0 -3.7559967247807237e-16
 outer loop
  vertex 6.77643750001595 13.552875 0.0
  vertex 8.68231052231024 13.552875000000002 4.7293886804545995
  vertex 13.552875 13.552875 0.0
 endloop
endfacet
facet normal 0.0 1.0 0.0
 outer loop
  vertex 6.77643750001595 13.552875 13.552875
  vertex 5.0823280361933225 13.552875 8.470546830610218
  vertex 0.0 13.552875 13.552875
 endloop
endfacet
facet normal 0.0 1.0 0.0
 outer loop
  vertex 0.0 13.552875 13.552875
  vertex 5.0823280361933225 13.552875 8.470546830610218
  vertex 0.0 13.552875 6.77643750001595
 endloop
endfacet
facet normal 0.0 1.0 0.0
 outer loop
  vertex 0.0 13.552875 0.0
  vertex 3.3882187722124346 13.552875 3.3882187722124346
  vertex 6.77643750001595 13.552875 0.0
 endloop
endfacet
facet normal 0.0 1.0 0.0
 outer loop
  vertex 0.0 13.552875 6.77643750001595
  vertex 3.3882187722124346 13.552875 3.3882187722124346
  vertex 0.0 13.552875 0.0
 endloop
endfacet
facet normal 7.328568728437207e-17 1.0 6.933953702648211e-16
 outer loop
  vertex 8.68231052231024 13.552875000000002 4.7293886804545995
  vertex 9.741128845193417 13.552874999999998 9.741128878505686
  vertex 13.552875 13.552875 6.77643750001595
 endloop
endfacet
facet normal 4.194196346621255e-16 1.0 -1.3980655099638088e-16
 outer loop
  vertex 6.77643750001595 13.552875 13.552875
  vertex 9.741128845193417 13.552874999999998 9.741128878505686
  vertex 5.0823280361933225 13.552875 8.470546830610218
 endloop
endfacet
facet normal -2.6771466380282806e-16 1.0 -2.6771466029392865e-16
 outer loop
  vertex 3.3882187722124346 13.552875 3.3882187722124346
  vertex 8.68231052231024 13.552875000000002 4.7293886804545995
  vertex 6.77643750001595 13.552875 0.0
 endloop
endfacet
facet normal -0.0 1.0 0.0
 outer loop
  vertex 0.0 13.552875 6.77643750001595
  vertex 5.0823280361933225 13.552875 8.470546830610218
  vertex 3.3882187722124346 13.552875 3.3882187722124346
 endloop
endfacet
facet normal -3.664831776591685e-16 1.0 1.221610528150911e-16
 outer loop
  vertex 5.0823280361933225 13.552875 8.470546830610218
  vertex 8.68231052231024 13.552875000000002 4.7293886804545995
  vertex 3.3882187722124346 13.552875 3.3882187722124346
 endloop
endfacet
facet normal 1.994522664848278e-16 1.0 6.667404598915975e-16
 outer loop
  vertex 5.0823280361933225 13.552875 8.470546830610218
  vertex 9.741128845193417 13.552874999999998 9.741128878505686
  vertex 8.68231052231024 13.552875000000002 4.7293886804545995
 endloop
endfacet
facet normal 4.660218061788803e-16 0.0 -1.0
 outer loop
  vertex 13.552875 6.77643750001595 13.552875
  vertex 9.741128820212001 9.741128809109767 13.552874999999998
  vertex 13.552875 13.552875 13.552875
 endloop
endfacet
facet normal 0.0 4.660218048215279e-16 -1.0
 outer loop
  vertex 13.552875 13.552875 13.552875
  vertex 9.741128820212001 9.741128809109767 13.552874999999998
  vertex 6.77643750001595 13.552875 13.552875
 endloop
endfacet
facet normal 0.0 0.0 -1.0
 outer loop
  vertex 13.552875 0.0 13.552875
  vertex 8.6823105060303 4.729388655045223 13.552875
  vertex 13.552875 6.77643750001595 13.552875
 endloop
endfacet
facet normal 0.0 0.0 -1.0
 outer loop
  vertex 6.77643750001595 0.0 13.552875
  vertex 8.6823105060303 4.729388655045223 13.552875
  vertex 13.552875 0.0 13.552875
 endloop
endfacet
facet normal -0.0 0.0 -1.0
 outer loop
  vertex 6.77643750001595 13.552875 13.552875
  vertex 5.082328036193318 8.470546830610218 13.552875
  vertex 0.0 13.552875 13.552875
 endloop
endfacet
facet normal 0.0 0.0 -1.0
 outer loop
  vertex 0.0 13.552875 13.552875
  vertex 5.082328036193318 8.470546830610218 13.552875
  vertex 0.0 6.77643750001595 13.552875
 endloop
endfacet
facet normal 0.0 0.0 -1.0
 outer loop
  vertex 0.0 0.0 13.552875
  vertex 3.3882187722124364 3.3882187722124364 13.552875
  vertex 6.77643750001595 0.0 13.552875
 endloop
endfacet
facet normal 0.0 0.0 -1.0
 outer loop
  vertex 0.0 6.77643750001595 13.552875
  vertex 3.3882187722124364 3.3882187722124364 13.552875
  vertex 0.0 0.0 13.552875
 endloop
endfacet
facet normal 1.6348346205688772e-16 -3.889778925411555e-16 -1.0
 outer loop
  vertex 8.6823105060303 4.729388655045223 13.552875
  vertex 9.741128820212001 9.741128809109767 13.552874999999998
  vertex 13.552875 6.77643750001595 13.552875
 endloop
endfacet
facet normal -4.1941963484527567e-16 1.3980655105743131e-16 -1.0
 outer loop
  vertex 6.77643750001595 13.552875 13.552875
  vertex 9.741128820212001 9.741128809109767 13.552874999999998
  vertex 5.082328036193318 8.470546830610218 13.552875
 endloop
endfacet
facet normal 0.0 0.0 -1.0
 outer loop
  vertex 3.3882187722124364 3.3882187722124364 13.552875
  vertex 8.6823105060303 4.729388655045223 13.552875
  vertex 6.77643750001595 0.0 13.552875
 endloop
endfacet
facet normal 0.0 0.0 -1.0
 outer loop
  vertex 0.0 6.77643750001595 13.552875
  vertex 5.082328036193318 8.470546830610218 13.552875
  vertex 3.3882187722124364 3.3882187722124364 13.552875
 endloop
endfacet
facet normal 0.0 -0.0 -1.0
 outer loop
  vertex 5.082328036193318 8.470546830610218 13.552875
  vertex 8.6823105060303 4.729388655045223 13.552875
  vertex 3.3882187722124364 3.3882187722124364 13.552875
 endloop
endfacet
facet normal -3.020277274764321e-16 -2.9063046075448335e-16 -1.0
 outer loop
  vertex 5.082328036193318 8.470546830610218 13.552875
  vertex 9.741128820212001 9.741128809109767 13.552874999999998
  vertex 8.6823105060303 4.729388655045223 13.552875
 endloop
endfacet
facet normal 0.0 0.0 -1.0
 outer loop
  vertex 13.552875 6.77643750001595 0.0
  vertex 9.741128863927035 9.741128852824804 0.0
  vertex 13.552875 13.552875 0.0
 endloop
endfacet
facet normal -0.0 0.0 -1.0
 outer loop
  vertex 13.552875 13.552875 0.0
  vertex 9.741128863927035 9.741128852824804 0.0
  vertex 6.77643750001595 13.552875 0.0
 endloop
endfacet
facet normal 0.0 0.0 -1.0
 outer loop
  vertex 13.552875 0.0 0.0
  vertex 8.682310542386542 4.729388653411915 0.0
  vertex 13.552875 6.77643750001595 0.0
 endloop
endfacet
facet normal 0.0 0.0 -1.0
 outer loop
  vertex 6.77643750001595 0.0 0.0
  vertex 8.682310542386542 4.729388653411915 0.0
  vertex 13.552875 0.0 0.0
 endloop
endfacet
facet normal -0.0 0.0 -1.0
 outer loop
  vertex 6.77643750001595 13.552875 0.0
  vertex 5.082328086153359 8.470546880570257 0.0
  vertex 0.0 13.552875 0.0
 endloop
endfacet
facet normal 0.0 0.0 -1.0
 outer loop
  vertex 0.0 13.552875 0.0
  vertex 5.082328086153359 8.470546880570257 0.0
  vertex 0.0 6.77643750001595 0.0
 endloop
endfacet
facet normal 0.0 0.0 -1.0
 outer loop
  vertex 0.0 0.0 0.0
  vertex 3.388218772212439 3.388218772212438 0.0
  vertex 6.77643750001595 0.0 0.0
 endloop
endfacet
facet normal 0.0 0.0 -1.0
 outer loop
  vertex 0.0 6.77643750001595 0.0
  vertex 3.388218772212439 3.388218772212438 0.0
  vertex 0.0 0.0 0.0
 endloop
endfacet
facet normal 0.0 0.0 -1.0
 outer loop
  vertex 8.682310542386542 4.729388653411915 0.0
  vertex 9.741128863927035 9.741128852824804 0.0
  vertex 13.552875 6.77643750001595 0.0
 endloop
endfacet
facet normal 0.0 -0.0 -1.0
 outer loop
  vertex 6.77643750001595 13.552875 0.0
  vertex 9.741128863927035 9.741128852824804 0.0
  vertex 5.082328086153359 8.470546880570257 0.0
 endloop
endfacet
facet normal 0.0 0.0 -1.0
 outer loop
  vertex 3.388218772212439 3.388218772212438 0.0
  vertex 8.682310542386542 4.729388653411915 0.0
  vertex 6.77643750001595 0.0 0.0
 endloop
endfacet
facet normal 0.0 0.0 -1.0
 outer loop
  vertex 0.0 6.77643750001595 0.0
  vertex 5.082328086153359 8.470546880570257 0.0
  vertex 3.388218772212439 3.388218772212438 0.0
 endloop
endfacet
facet normal 0.0 -0.0 -1.0
 outer loop
  vertex 5.082328086153359 8.470546880570257 0.0
  vertex 8.682310542386542 4.729388653411915 0.0
  vertex 3.388218772212439 3.388218772212438 0.0
 endloop
endfacet
facet normal 0.0 0.0 -1.0
 outer loop
  vertex 5.082328086153359 8.470546880570257 0.0
  vertex 9.741128863927035 9.741128852824804 0.0
  vertex 8.682310542386542 4.729388653411915 0.0
 endloop
endfacet
facet normal 0.0 1.0 -0.0
 outer loop
  vertex 13.552875 0.0 6.77643750001595
  vertex 9.741128863927035 0.0 9.741128852824804
  vertex 13.552875 0.0 13.552875
 endloop
endfacet
facet normal 0.0 1.0 0.0
 outer loop
  vertex 13.552875 0.0 13.552875
  vertex 9.741128863927035 0.0 9.741128852824804
  vertex 6.77643750001595 0.0 13.552875
 endloop
endfacet
facet normal 0.0 1.0 -0.0
 outer loop
  vertex 13.552875 0.0 0.0
  vertex 8.682310542386542 0.0 4.729388653411915
  vertex 13.552875 0.0 6.77643750001595
 endloop
endfacet
facet normal 0.0 1.0 0.0
 outer loop
  vertex 6.77643750001595 0.0 0.0
  vertex 8.682310542386542 0.0 4.729388653411915
  vertex 13.552875 0.0 0.0
 endloop
endfacet
facet normal 0.0 1.0 0.0
 outer loop
  vertex 6.77643750001595 0.0 13.552875
  vertex 5.082328086153359 0.0 8.470546880570257
  vertex 0.0 0.0 13.552875
 endloop
endfacet
facet normal 0.0 1.0 0.0
 outer loop
  vertex 0.0 0.0 13.552875
  vertex 5.082328086153359 0.0 8.470546880570257
  vertex 0.0 0.0 6.77643750001595
 endloop
endfacet
facet normal 0.0 1.0 0.0
 outer loop
  vertex 0.0 0.0 0.0
  vertex 3.388218772212439 0.0 3.388218772212438
  vertex 6.77643750001595 0.0 0.0
 endloop
endfacet
facet normal 0.0 1.0 0.0
 outer loop
  vertex 0.0 0.0 6.77643750001595
  vertex 3.388218772212439 0.0 3.388218772212438
  vertex 0.0 0.0 0.0
 endloop
endfacet
facet normal 0.0 1.0 0.0
 outer loop
  vertex 8.682310542386542 0.0 4.729388653411915
  vertex 9.741128863927035 0.0 9.741128852824804
  vertex 13.552875 0.0 6.77643750001595
 endloop
endfacet
facet normal 0.0 1.0 0.0
 outer loop
  vertex 6.77643750001595 0.0 13.552875
  vertex 9.741128863927035 0.0 9.741128852824804
  vertex 5.082328086153359 0.0 8.470546880570257
 endloop
endfacet
facet normal -0.0 1.0 0.0
 outer loop
  vertex 3.388218772212439 0.0 3.388218772212438
  vertex 8.682310542386542 0.0 4.729388653411915
  vertex 6.77643750001595 0.0 0.0
 endloop
endfacet
facet normal -0.0 1.0 0.0
 outer loop
  vertex 0.0 0.0 6.77643750001595
  vertex 5.082328086153359 0.0 8.470546880570257
  vertex 3.388218772212439 0.0 3.388218772212438
 endloop
endfacet
facet normal 0.0 1.0 0.0
 outer loop
  vertex 5.082328086153359 0.0 8.470546880570257
  vertex 8.682310542386542 0.0 4.729388653411915
  vertex 3.388218772212439 0.0 3.388218772212438
 endloop
endfacet
facet normal -0.0 1.0 0.0
 outer loop
  vertex 5.082328086153359 0.0 8.470546880570257
  vertex 9.741128863927035 0.0 9.741128852824804
  vertex 8.682310542386542 0.0 4.729388653411915
 endloop
endfacet
facet normal -1.0 0.0 0.0
 outer loop
  vertex 0.0 13.552875 6.77643750001595
  vertex 0.0 9.741128863927035 9.741128852824804
  vertex 0.0 13.552875 13.552875
 endloop
endfacet
facet normal -1.0 -0.0 0.0
 outer loop
  vertex 0.0 13.552875 13.552875
  vertex 0.0 9.741128863927035 9.741128852824804
  vertex 0.0 6.77643750001595 13.552875
 endloop
endfacet
facet normal -1.0 0.0 0.0
 outer loop
  vertex 0.0 13.552875 0.0
  vertex 0.0 8.682310542386542 4.729388653411915
  vertex 0.0 13.552875 6.77643750001595
 endloop
endfacet
facet normal -1.0 0.0 0.0
 outer loop
  vertex 0.0 6.77643750001595 0.0
  vertex 0.0 8.682310542386542 4.729388653411915
  vertex 0.0 13.552875 0.0
 endloop
endfacet
facet normal -1.0 -0.0 0.0
 outer loop
  vertex 0.0 6.77643750001595 13.552875
  vertex 0.0 5.082328086153359 8.470546880570257
  vertex 0.0 0.0 13.552875
 endloop
endfacet
facet normal -1.0 0.0 0.0
 outer loop
  vertex 0.0 0.0 13.552875
  vertex 0.0 5.082328086153359 8.470546880570257
  vertex 0.0 0.0 6.77643750001595
 endloop
endfacet
facet normal -1.0 0.0 0.0
 outer loop
  vertex 0.0 0.0 0.0
  vertex 0.0 3.388218772212439 3.388218772212438
  vertex 0.0 6.77643750001595 0.0
 endloop
endfacet
facet normal -1.0 0.0 0.0
 outer loop
  vertex 0.0 0.0 6.77643750001595
  vertex 0.0 3.388218772212439 3.388218772212438
  vertex 0.0 0.0 0.0
 endloop
endfacet
facet normal -1.0 0.0 0.0
 outer loop
  vertex 0.0 8.682310542386542 4.729388653411915
  vertex 0.0 9.741128863927035 9.741128852824804
  vertex 0.0 13.552875 6.77643750001595
 endloop
endfacet
facet normal -1.0 0.0 -0.0
 outer loop
  vertex 0.0 6.77643750001595 13.552875
  vertex 0.0 9.741128863927035 9.741128852824804
  vertex 0.0 5.082328086153359 8.470546880570257
 endloop
endfacet
facet normal -1.0 0.0 0.0
 outer loop
  vertex 0.0 3.388218772212439 3.388218772212438
  vertex 0.0 8.682310542386542 4.729388653411915
  vertex 0.0 6.77643750001595 0.0
 endloop
endfacet
facet normal -1.0 0.0 0.0
 outer loop
  vertex 0.0 0.0 6.77643750001595
  vertex 0.0 5.082328086153359 8.470546880570257
  vertex 0.0 3.388218772212439 3.388218772212438
 endloop
endfacet
facet normal -1.0 0.0 -0.0
 outer loop
  vertex 0.0 5.082328086153359 8.470546880570257
  vertex 0.0 8.682310542386542 4.729388653411915
  vertex 0.0 3.388218772212439 3.388218772212438
 endloop
endfacet
facet normal -1.0 0.0 0.0
 outer loop
  vertex 0.0 5.082328086153359 8.470546880570257
  vertex 0.0 9.741128863927035 9.741128852824804
  vertex 0.0 8.682310542386542 4.729388653411915
 endloop
endfacet
endsolid
